{"glyphs":{"0":{"ha":1106,"x_min":0,"x_max":0,"o":"m 866 979 l 419 979 b 114 724 276 979 139 864 l 29 254 b 242 0 4 114 99 0 l 689 0 b 994 254 832 0 969 114 l 1079 724 b 866 979 1104 864 1009 979 z m 705 288 b 665 255 701 270 684 255 l 358 255 b 330 288 339 255 327 270 l 404 694 b 443 727 407 712 425 727 l 751 727 b 778 694 769 727 781 712 z "},"1":{"ha":571,"x_min":0,"x_max":0,"o":"m 416 54 l 573 925 b 528 979 578 955 558 979 l 180 979 b 116 925 150 979 121 955 l 89 778 b 134 724 84 748 104 724 l 209 724 b 236 691 228 724 240 709 l 121 54 b 167 0 116 24 136 0 l 351 0 b 416 54 381 0 410 24 z "},"2":{"ha":1133,"x_min":0,"x_max":0,"o":"m 234 0 l 873 0 l 902 0 b 966 54 932 0 961 24 l 991 201 b 945 255 996 231 976 255 l 333 255 b 306 288 315 255 303 270 l 314 334 b 353 366 317 352 334 366 l 793 366 b 1096 621 936 366 1071 480 l 1113 720 b 897 975 1137 861 1040 975 l 246 975 b 182 921 216 975 187 951 l 158 781 b 204 727 153 751 173 727 l 799 727 b 827 694 818 727 830 712 l 816 633 b 778 600 813 615 796 600 l 338 600 b 35 346 195 600 59 486 l 19 255 b 234 0 -5 114 91 0 z "},"3":{"ha":1093,"x_min":0,"x_max":0,"o":"m 1048 621 l 1065 721 b 850 975 1089 861 993 975 l 199 975 b 134 921 168 975 140 951 l 110 781 b 156 727 105 751 126 727 l 752 727 b 779 694 770 727 782 712 l 769 633 b 730 600 766 615 748 600 l 401 600 b 337 546 371 600 342 576 b 317 429 331 510 323 465 b 362 375 311 399 332 375 l 690 375 b 718 342 709 375 721 360 l 706 281 b 667 249 703 263 686 249 l 72 249 b 7 194 41 249 13 224 l -18 54 b 27 0 -24 24 -4 0 l 678 0 b 983 255 821 0 957 114 l 1001 354 b 983 488 1010 404 1001 449 b 1048 621 1015 527 1039 571 z "},"4":{"ha":1138,"x_min":0,"x_max":0,"o":"m 1011 396 l 1078 760 b 1032 814 1083 790 1063 814 l 848 814 b 783 760 818 814 789 790 l 718 398 l 427 399 b 518 522 427 399 518 521 l 796 896 b 801 951 808 912 810 933 b 754 979 792 968 774 979 l 523 979 b 479 957 506 979 489 971 b 127 484 479 957 127 484 b 55 386 103 451 80 418 b 4 287 31 355 11 326 l -11 202 b 33 147 -17 172 3 147 l 671 144 l 656 54 b 701 0 650 24 671 0 l 885 0 b 950 54 916 0 945 24 l 965 143 b 1029 198 995 144 1023 168 l 1054 341 b 1011 396 1059 371 1040 394 z "},"5":{"ha":1140,"x_min":0,"x_max":0,"o":"m 841 609 l 428 609 b 401 641 410 609 398 623 l 410 687 b 448 720 413 705 430 720 l 1032 720 b 1097 774 1063 720 1092 744 l 1124 921 b 1079 975 1129 951 1109 975 l 1050 975 l 1050 975 l 273 974 b 162 880 221 974 172 932 l 86 447 b 145 375 79 407 106 375 l 743 375 b 770 342 761 375 773 360 l 759 281 b 720 249 756 263 738 249 l 79 249 b 14 194 48 249 19 224 l -12 54 b 34 0 -17 24 3 0 l 731 0 b 1036 255 874 0 1010 114 l 1053 354 b 841 609 1079 495 984 609 z "},"6":{"ha":1144,"x_min":0,"x_max":0,"o":"m 848 609 l 407 609 b 380 641 389 609 377 623 l 388 687 b 427 720 392 705 409 720 l 1024 720 b 1089 774 1055 720 1084 744 l 1116 921 b 1071 975 1121 951 1101 975 l 1042 975 b 418 975 1042 975 418 975 b 113 721 275 975 139 861 l 103 662 b 30 252 103 662 30 252 b 27 215 28 239 27 227 b 35 147 26 192 28 169 b 62 88 41 126 50 106 b 107 42 75 70 90 55 b 165 12 124 29 144 19 b 199 4 176 9 188 6 b 217 2 205 3 211 3 b 235 1 223 2 229 1 b 339 0 270 -1 304 0 b 391 0 356 0 373 0 b 448 0 410 0 429 0 b 507 0 468 0 487 0 b 565 0 527 0 546 0 b 619 0 583 0 601 0 b 667 0 635 0 651 0 b 704 0 679 0 692 0 b 729 0 712 0 720 0 b 738 0 732 0 735 0 b 1042 255 880 0 1017 114 l 1060 354 b 848 609 1086 495 991 609 z m 766 281 b 727 249 763 263 746 249 l 345 249 b 316 284 326 249 313 264 l 326 340 b 367 375 329 359 348 375 l 750 375 b 777 342 768 375 780 360 z "},"7":{"ha":992,"x_min":0,"x_max":0,"o":"m 83 774 b 129 720 78 744 98 720 l 566 720 b 408 478 488 600 408 478 l 397 462 l 396 461 l 132 58 b 128 19 124 46 122 31 b 159 0 133 7 145 0 b 159 0 159 0 159 0 l 429 0 b 471 22 446 0 462 8 l 613 238 l 795 516 b 795 516 795 516 795 516 l 1037 885 b 1041 891 1039 887 1040 889 b 1048 949 1053 910 1056 932 b 1002 977 1040 967 1023 977 l 226 975 l 227 975 l 201 975 l 201 975 l 172 975 b 108 921 142 975 113 951 z "},"8":{"ha":1139,"x_min":0,"x_max":0,"o":"m 1051 362 b 1051 399 1052 374 1052 387 b 1045 436 1050 412 1048 424 b 1006 508 1034 478 1015 500 b 1079 636 1043 542 1071 587 b 1081 643 1080 639 1080 641 l 1087 675 l 1087 675 l 1097 733 b 896 976 1120 867 1031 976 l 415 976 b 129 733 281 976 152 867 l 118 675 l 118 675 l 113 643 b 112 637 113 641 112 639 b 140 508 103 587 115 542 b 77 437 129 500 102 479 b 59 404 70 426 64 416 b 43 360 52 390 48 375 b 33 317 40 346 36 332 b 33 313 33 315 33 314 l 29 289 l 22 254 l 22 254 b 19 190 18 232 17 211 b 231 0 28 81 113 0 l 736 0 b 1026 220 865 0 988 96 b 1034 254 1030 231 1032 242 l 1039 281 l 1045 317 b 1051 362 1048 333 1050 348 z m 749 302 b 692 254 744 275 718 254 l 365 254 b 325 302 338 254 320 275 l 329 328 b 387 377 334 355 360 377 l 713 377 b 753 328 740 377 758 355 z m 414 684 b 471 733 419 711 444 733 l 754 733 b 794 684 781 733 799 711 l 789 657 b 732 609 784 630 759 609 l 449 609 b 409 657 422 609 405 630 z "},"9":{"ha":1143,"x_min":0,"x_max":0,"o":"m 297 367 l 737 367 b 764 334 756 367 768 352 l 756 288 b 717 256 753 270 735 256 l 120 256 b 55 201 90 256 61 231 l 29 54 b 74 0 23 24 44 0 l 103 0 l 103 0 l 726 0 b 1031 255 869 0 1006 114 l 1042 313 l 1042 313 l 1114 724 b 908 974 1139 862 1046 974 l 908 975 l 407 975 b 102 721 264 975 127 861 l 84 621 b 297 367 59 481 154 367 z m 378 694 b 417 727 382 712 399 727 l 799 727 b 829 691 819 727 832 711 l 819 636 b 777 600 815 616 797 600 l 395 600 b 367 633 376 600 364 615 z "},"\u0000":{"ha":0,"x_min":0,"x_max":0,"o":""},"\n":{"ha":0,"x_min":0,"x_max":0,"o":""},"\r":{"ha":0,"x_min":0,"x_max":0,"o":""}," ":{"ha":618,"x_min":0,"x_max":0,"o":""},"!":{"ha":446,"x_min":0,"x_max":0,"o":"m 279 292 l 96 292 b 31 238 65 292 36 267 l 0 54 b 45 0 -6 24 14 0 l 228 0 b 293 54 258 0 287 24 l 324 238 b 279 291 329 267 309 291 z m 402 971 l 219 971 b 154 917 189 971 160 947 l 64 419 b 109 365 59 389 79 365 l 293 365 b 357 419 323 365 352 389 l 447 917 b 402 971 453 947 433 971 z "},"\"":{"ha":608,"x_min":0,"x_max":0,"o":"m 669 1114 l 543 1114 b 476 1057 511 1114 481 1088 l 429 792 b 465 749 425 768 441 749 l 545 749 b 609 793 572 749 598 767 l 713 1043 b 669 1114 728 1079 707 1114 z m 323 1114 l 196 1114 b 129 1057 165 1114 135 1088 l 83 792 b 118 749 78 768 94 749 l 199 749 b 262 793 225 749 251 767 l 366 1043 b 323 1114 381 1079 360 1114 z "},"#":{"ha":890,"x_min":0,"x_max":0,"o":"m 856 673 b 667 672 770 672 710 672 b 705 882 688 790 703 866 b 688 902 707 893 700 902 l 619 902 b 594 882 607 902 596 893 b 556 672 593 876 586 837 b 529 672 547 672 538 672 b 474 672 509 672 491 672 b 473 672 473 672 473 672 b 401 672 447 672 423 672 b 439 882 422 789 436 866 b 422 902 441 893 433 902 l 352 902 b 328 882 341 902 330 893 b 289 671 327 876 320 837 b 102 671 132 671 107 671 b 77 650 90 671 79 662 l 65 582 b 82 561 63 571 71 561 b 270 562 97 561 152 562 b 257 492 266 540 261 517 b 257 492 257 492 257 492 b 247 438 254 475 251 457 b 242 409 245 429 244 419 b 54 409 84 409 60 409 b 30 388 43 409 32 399 l 17 320 b 34 299 15 308 23 299 b 223 300 50 299 104 300 b 185 90 214 252 202 186 b 202 70 183 79 191 70 l 272 70 b 296 90 283 70 294 79 b 319 219 297 96 300 117 b 319 219 319 219 319 219 b 333 300 319 223 325 255 b 489 300 380 300 436 300 b 451 90 480 252 468 186 b 468 70 449 79 457 70 l 538 70 b 562 90 549 70 560 79 b 585 219 563 96 567 117 b 585 219 585 219 585 219 b 600 300 586 223 591 255 b 683 301 647 301 680 301 b 684 301 683 301 683 301 b 789 301 787 301 782 301 b 813 322 800 301 811 310 l 825 390 b 808 410 827 401 820 410 b 620 410 722 410 663 410 b 647 563 629 462 639 517 b 731 563 694 563 728 563 b 731 563 731 563 731 563 b 836 563 835 563 830 563 b 861 584 848 563 859 572 l 873 652 b 856 673 875 663 867 673 z m 523 492 b 514 439 520 476 517 458 b 508 410 512 430 510 420 b 480 410 499 410 490 410 b 426 410 460 410 442 410 b 426 410 426 410 426 410 b 353 409 400 410 376 409 b 381 562 363 462 373 516 b 536 562 427 562 483 562 b 523 492 532 540 528 517 b 523 492 523 492 523 492 z "},"$":{"ha":1132,"x_min":0,"x_max":0,"o":"m 1057 972 l 794 972 l 804 1026 b 758 1080 809 1056 789 1080 l 574 1080 b 510 1026 544 1080 515 1056 l 500 972 l 408 972 b 104 718 266 972 130 858 l 87 619 b 299 365 61 479 156 365 l 737 365 b 764 333 755 365 768 351 l 756 287 b 717 255 753 269 735 255 l 107 255 b 43 201 77 255 48 230 l 16 54 b 61 0 11 24 31 0 l 340 0 l 326 -79 b 371 -133 321 -109 341 -133 l 556 -133 b 620 -79 586 -133 615 -109 l 635 0 l 698 0 l 698 0 l 726 0 b 1030 254 869 0 1005 114 l 1047 344 b 834 598 1072 484 977 598 l 396 598 b 369 630 378 598 365 612 l 380 692 b 419 724 383 709 400 724 l 1012 724 b 1077 778 1042 724 1071 748 l 1102 917 b 1057 972 1107 947 1087 972 z "},"%":{"ha":1149,"x_min":0,"x_max":0,"o":"m 176 543 l 423 543 b 559 656 487 543 548 594 l 597 863 b 577 944 602 893 595 922 b 501 977 559 965 532 977 l 254 977 b 118 864 190 977 129 926 l 80 657 b 100 576 75 627 82 598 b 176 543 118 555 145 543 z m 249 850 b 264 863 250 857 257 863 l 450 863 b 459 859 454 863 457 861 b 461 851 461 857 461 854 l 428 672 l 428 672 b 413 659 427 665 420 659 l 226 659 b 218 663 223 659 220 660 b 216 671 216 665 216 668 z m 975 434 l 727 434 b 591 321 663 434 603 383 l 554 114 b 573 33 548 84 555 55 b 649 0 591 12 618 0 l 897 0 b 1033 113 961 0 1022 51 l 1070 320 b 1051 401 1076 351 1069 379 b 975 434 1033 422 1006 434 z m 902 129 l 902 129 b 887 116 901 122 894 116 l 700 116 b 692 119 697 116 694 117 b 690 128 690 122 689 125 l 722 307 b 738 320 723 314 730 320 l 924 320 b 932 316 927 320 930 319 b 934 308 934 314 935 311 z m 1111 971 b 1102 977 1110 975 1106 977 l 993 977 b 929 950 969 977 946 967 l 36 18 b 33 6 33 15 32 10 b 43 0 35 2 39 0 l 152 0 b 215 27 176 0 199 10 l 1109 959 b 1111 971 1112 962 1113 967 z "},"&":{"ha":1090,"x_min":0,"x_max":0,"o":"m 1033 605 l 447 605 b 407 653 420 605 402 627 l 412 680 b 469 729 416 707 442 729 l 905 729 b 945 768 927 729 944 746 b 742 971 946 883 862 971 l 413 971 b 128 729 279 971 152 863 l 118 672 l 118 672 l 113 640 b 111 633 113 638 112 636 b 139 505 103 584 114 540 b 76 434 128 498 101 476 b 59 402 69 424 63 413 b 43 358 52 388 47 373 b 33 315 39 345 36 330 b 33 311 33 314 33 313 l 29 288 l 22 252 l 22 252 b 19 189 18 230 17 209 b 230 0 28 80 112 0 l 582 0 b 871 219 710 0 833 95 b 879 252 874 230 877 241 l 884 280 l 890 315 l 890 315 b 895 360 893 331 894 346 b 895 375 895 365 895 370 l 1003 375 b 1035 401 1019 375 1032 386 l 1064 567 b 1033 605 1068 587 1053 605 z m 599 326 l 595 301 b 538 252 590 274 565 252 l 363 252 b 323 301 336 252 318 274 l 328 326 b 384 375 332 353 358 375 l 559 375 b 599 326 586 375 604 353 z "},"'":{"ha":290,"x_min":0,"x_max":0,"o":"m 334 1114 l 207 1114 b 140 1057 176 1114 146 1088 l 94 792 b 130 749 89 768 106 749 l 210 749 b 273 793 237 749 263 767 l 377 1043 b 334 1114 392 1079 371 1114 z "},"(":{"ha":475,"x_min":0,"x_max":0,"o":"m 453 982 b 426 987 442 984 437 985 b 306 1011 378 997 354 1001 b 279 1016 295 1013 290 1014 b 205 967 250 1022 217 1000 b 32 4 72 585 36 387 b 87 -46 31 -29 56 -51 b 116 -40 99 -43 105 -42 b 245 -17 168 -31 193 -26 b 274 -11 256 -14 262 -13 b 329 53 304 -6 329 23 b 486 918 333 397 366 575 b 453 982 496 948 482 976 z "},")":{"ha":475,"x_min":0,"x_max":0,"o":"m 387 1016 b 358 1011 376 1014 370 1013 b 230 987 307 1001 281 997 b 201 982 218 985 213 984 b 145 918 170 976 146 948 b -11 52 141 574 109 396 b 22 -11 -21 23 -7 -6 b 49 -17 33 -13 38 -15 b 169 -40 97 -26 121 -31 b 196 -46 180 -42 185 -44 b 269 4 225 -51 258 -29 b 443 967 403 386 439 584 b 387 1016 443 1000 418 1022 z "},"*":{"ha":618,"x_min":0,"x_max":0,"o":"m 630 854 b 612 861 626 859 619 861 l 458 853 l 544 981 b 547 1000 548 987 549 994 b 536 1016 546 1007 542 1013 l 471 1055 b 452 1057 465 1058 459 1059 b 437 1045 445 1055 440 1051 l 362 904 l 287 1045 b 272 1057 284 1051 279 1055 b 253 1055 266 1059 259 1058 l 188 1016 b 177 1000 183 1013 179 1007 b 180 981 175 994 177 987 l 266 853 l 112 861 b 94 854 105 861 99 859 b 86 836 89 849 86 843 l 86 761 b 94 743 86 754 89 748 b 112 736 99 738 105 736 l 266 744 l 180 616 b 177 597 177 610 175 603 b 188 581 178 590 183 584 l 253 542 b 272 540 259 539 266 538 b 287 552 279 542 284 546 l 362 693 l 437 552 b 452 540 440 546 445 542 b 471 542 459 538 465 539 l 536 581 b 547 597 542 584 546 590 b 544 616 549 603 548 610 l 458 744 l 612 736 b 630 743 619 736 625 738 b 638 761 635 748 638 754 l 638 836 b 630 854 638 843 635 849 z "},"+":{"ha":704,"x_min":0,"x_max":0,"o":"m 634 614 l 503 614 l 527 750 b 485 801 533 778 514 801 l 331 801 b 271 750 303 801 276 778 l 247 613 l 116 613 b 56 562 88 613 61 590 l 29 408 b 71 357 24 380 43 357 l 202 357 l 177 221 b 220 170 172 193 191 170 l 374 170 b 434 221 402 170 429 193 l 458 357 l 588 357 b 649 408 617 357 644 380 l 676 562 b 634 614 681 591 662 614 z "},",":{"ha":318,"x_min":0,"x_max":0,"o":"m 182 256 l 56 256 b -12 199 24 256 -6 231 l -58 -65 b -22 -109 -62 -89 -46 -109 l 58 -109 b 122 -65 85 -109 111 -91 l 226 186 b 182 256 241 222 219 256 z "},"-":{"ha":586,"x_min":0,"x_max":0,"o":"m 518 613 l 112 613 b 52 562 84 613 57 590 l 25 408 b 67 357 20 380 39 357 l 473 357 b 533 408 501 357 528 380 l 560 562 b 518 613 565 590 546 613 z "},".":{"ha":336,"x_min":0,"x_max":0,"o":"m 203 256 l 49 256 b -11 205 21 256 -6 233 l -38 51 b 4 0 -43 23 -24 0 l 158 0 b 218 51 186 0 213 23 l 246 205 b 203 256 250 233 232 256 z "},"/":{"ha":792,"x_min":0,"x_max":0,"o":"m 828 971 l 596 971 b 499 919 557 971 520 951 l -62 48 b -36 0 -75 27 -61 0 l 196 0 b 293 53 235 0 272 20 l 854 923 b 828 971 867 944 853 971 z "},":":{"ha":385,"x_min":0,"x_max":0,"o":"m 335 855 l 181 855 b 120 804 152 855 125 832 l 93 650 b 135 599 88 621 107 599 l 289 599 b 350 650 318 599 345 622 l 377 804 b 335 855 382 832 363 855 z m 249 372 l 95 372 b 35 321 67 372 40 349 l 8 167 b 50 116 3 139 22 116 l 204 116 b 264 167 232 116 259 139 l 291 321 b 249 372 296 349 277 372 z "},";":{"ha":382,"x_min":0,"x_max":0,"o":"m 229 374 l 103 374 b 35 317 71 374 41 348 l -11 53 b 25 9 -15 28 1 9 l 105 9 b 168 53 132 9 158 27 l 273 303 b 229 374 287 339 266 374 z m 338 857 l 184 857 b 124 806 156 857 129 834 l 97 652 b 139 601 92 623 111 601 l 293 601 b 353 652 321 601 348 624 l 381 806 b 338 857 385 834 366 857 z "},"<":{"ha":833,"x_min":0,"x_max":0,"o":"m 784 875 b 48 530 641 808 268 633 b 45 443 13 513 11 463 b 663 96 223 344 609 126 b 701 114 679 87 698 96 l 733 296 b 704 357 738 321 726 345 b 535 452 642 392 586 424 b 536 475 526 458 527 471 b 747 574 609 510 682 544 b 793 635 771 586 788 608 b 829 841 802 688 818 780 b 784 875 834 866 808 886 z "},"=":{"ha":710,"x_min":0,"x_max":0,"o":"m 643 801 b 167 801 276 801 532 801 b 107 750 138 801 112 778 l 79 596 b 122 545 75 567 93 545 b 598 545 488 545 232 545 b 658 596 626 545 653 568 l 685 750 b 643 801 690 778 671 801 z m 587 426 b 111 426 220 426 476 426 b 50 375 82 426 55 403 l 23 221 b 65 170 18 193 37 170 b 194 170 145 170 180 170 b 203 170 201 170 203 170 b 541 170 226 170 305 170 b 602 221 570 170 597 193 l 629 375 b 587 426 634 403 615 426 z "},">":{"ha":833,"x_min":0,"x_max":0,"o":"m 787 527 b 169 875 610 627 223 844 b 131 857 154 884 134 874 l 99 675 b 128 613 95 650 107 626 b 299 517 191 578 247 546 b 298 496 307 513 307 500 b 86 396 224 461 151 427 b 40 336 61 385 44 363 b 3 130 30 283 14 191 b 48 95 -1 104 25 84 b 784 441 191 163 565 338 b 787 527 820 458 822 508 z "},"?":{"ha":907,"x_min":0,"x_max":0,"o":"m 447 294 l 264 294 b 199 240 234 294 205 270 l 168 57 b 213 3 163 27 183 3 l 397 3 b 461 57 427 3 456 27 l 492 240 b 447 294 498 270 478 294 z m 691 974 l 172 974 b 107 920 141 974 112 950 l 81 780 b 126 726 76 751 96 726 l 590 726 b 617 694 609 726 621 712 b 516 601 600 600 611 601 b 243 432 404 601 297 530 b 244 389 236 419 236 402 b 282 368 252 376 266 368 b 580 368 384 368 468 368 b 884 621 722 368 858 481 l 902 720 b 691 974 928 860 833 974 z "},"@":{"ha":1076,"x_min":0,"x_max":0,"o":"m 1000 842 b 827 920 959 892 897 920 l 390 920 b 100 677 252 920 124 813 l 34 313 b 79 129 22 244 38 179 b 253 51 121 79 183 51 l 690 51 b 868 114 752 51 815 74 b 877 132 873 119 877 125 b 870 151 878 139 875 146 l 826 195 b 796 198 818 203 805 205 b 690 161 763 174 726 161 l 253 161 b 164 200 216 161 185 175 b 142 294 144 224 136 258 l 208 658 b 390 810 223 742 305 810 l 827 810 b 916 772 864 810 895 796 b 937 677 936 747 944 714 l 889 408 b 860 384 886 394 874 384 l 796 384 b 771 397 786 384 777 389 b 761 438 762 408 758 424 l 795 627 b 782 676 798 645 793 663 b 737 698 771 690 754 698 l 442 698 b 333 606 388 698 342 659 l 285 343 b 298 295 282 326 287 308 b 345 274 309 281 326 274 l 638 274 b 705 297 662 274 685 282 l 712 302 l 719 297 b 796 274 742 282 769 274 l 884 274 b 993 365 938 274 984 312 b 1045 653 1029 563 1042 636 l 1046 658 b 1000 842 1058 727 1042 793 z m 639 384 l 404 384 l 441 587 l 675 587 z "},"A":{"ha":1178,"x_min":0,"x_max":0,"o":"m -73 22 b -37 0 -67 9 -53 0 l 197 0 b 243 25 215 0 232 10 l 279 76 l 298 105 l 768 105 l 792 25 b 825 0 797 10 810 0 l 1047 0 b 1086 22 1061 0 1076 9 b 1094 68 1095 36 1098 53 l 815 920 b 749 970 798 971 749 970 b 681 971 723 970 701 971 b 664 971 675 971 670 970 b 657 971 662 971 659 971 b 613 970 641 971 626 971 l 613 970 b 612 970 612 970 612 970 l 612 970 b 497 920 562 968 526 959 l -66 68 b -73 22 -76 53 -79 36 z m 616 590 l 696 337 l 450 337 z "},"B":{"ha":1158,"x_min":0,"x_max":0,"o":"m 45 0 l 776 0 b 1062 238 910 0 1038 107 l 1077 324 b 1084 381 1081 344 1083 363 b 1072 445 1084 402 1081 423 b 1035 504 1070 450 1039 507 b 1110 634 1073 539 1101 584 b 1112 641 1111 637 1110 639 l 1126 719 b 914 973 1151 859 1056 973 l 221 973 b 156 919 190 973 161 949 l 0 54 b 45 0 -6 24 14 0 z m 349 365 b 362 375 350 371 356 375 l 745 375 b 785 327 772 375 790 354 l 780 300 b 723 252 776 274 750 252 l 340 252 b 330 263 333 252 329 257 z m 413 719 b 426 729 414 725 420 729 l 784 729 b 825 681 811 729 829 708 l 820 655 b 762 606 815 628 789 606 l 403 606 b 394 617 397 606 393 611 z "},"C":{"ha":957,"x_min":0,"x_max":0,"o":"m 233 0 l 771 0 b 836 54 802 0 831 24 l 863 201 b 817 255 868 230 848 255 l 350 255 b 323 287 331 255 319 269 l 396 690 b 434 722 399 708 416 722 l 902 722 b 967 776 932 722 961 747 l 993 920 b 948 974 998 950 978 974 l 410 974 b 107 721 268 974 132 861 l 21 254 b 233 0 -5 114 90 0 z "},"D":{"ha":1104,"x_min":0,"x_max":0,"o":"m 45 0 l 696 0 b 1000 254 839 0 975 114 l 1084 721 b 872 975 1110 862 1015 975 l 221 975 b 156 921 191 975 162 951 l 0 54 b 45 0 -6 24 14 0 z m 409 692 b 448 724 412 710 430 724 l 758 724 b 785 692 776 724 788 710 l 712 287 b 673 255 708 269 691 255 l 363 255 b 336 287 345 255 333 269 z "},"E":{"ha":1035,"x_min":0,"x_max":0,"o":"m 45 0 l 864 0 b 903 32 882 0 899 15 l 937 223 b 910 255 940 241 928 255 l 341 255 b 332 266 335 255 331 260 l 348 359 b 361 370 349 365 355 370 l 819 370 b 858 403 837 370 855 385 l 888 571 b 861 603 892 589 880 603 l 404 603 b 395 614 398 603 394 608 l 413 715 b 426 725 414 720 419 725 l 995 725 b 1033 758 1013 725 1030 740 l 1067 941 b 1040 974 1070 959 1058 974 l 221 974 b 156 920 190 974 161 949 l 0 54 b 45 0 -6 24 15 0 z "},"F":{"ha":1003,"x_min":0,"x_max":0,"o":"m 45 0 l 228 0 b 293 54 259 0 287 24 l 348 359 b 361 370 349 365 355 370 l 818 370 b 857 402 836 370 853 384 l 887 570 b 860 603 890 588 878 603 l 403 603 b 394 613 397 603 393 607 l 412 713 b 425 724 413 719 419 724 l 993 724 b 1032 757 1011 724 1028 739 l 1065 940 b 1038 972 1068 957 1056 972 l 220 972 b 156 918 190 972 161 948 l 0 54 b 45 0 -6 24 15 0 z "},"G":{"ha":1156,"x_min":0,"x_max":0,"o":"m 1117 971 l 410 971 b 106 717 267 971 131 858 l 22 255 b 234 1 -3 115 91 1 l 913 0 b 941 0 913 0 941 0 b 1006 54 971 0 1000 24 l 1096 551 b 1050 605 1101 580 1081 605 l 594 605 b 556 572 576 605 559 590 l 525 404 b 552 372 522 386 534 372 l 762 372 b 771 361 768 372 772 367 l 754 267 b 741 256 753 261 747 256 l 351 256 b 324 288 333 256 321 270 l 397 692 b 436 724 400 709 417 724 l 1072 724 b 1137 778 1102 724 1131 748 l 1162 918 b 1117 971 1167 947 1147 971 z "},"H":{"ha":1117,"x_min":0,"x_max":0,"o":"m 1073 972 l 890 972 b 825 918 859 972 830 948 l 770 616 b 757 605 769 610 763 605 l 402 605 b 393 616 396 605 392 610 l 448 918 b 402 972 453 948 433 972 l 219 972 b 154 918 189 972 160 948 l -2 54 b 43 0 -7 24 13 0 l 227 0 b 291 54 257 0 286 24 l 347 361 b 360 372 348 367 354 372 l 715 372 b 724 361 721 372 725 368 l 669 54 b 714 0 663 24 684 0 l 897 0 b 962 54 928 0 957 24 l 1118 918 b 1073 972 1123 948 1103 972 z "},"I":{"ha":446,"x_min":0,"x_max":0,"o":"m 219 972 b 154 918 189 972 160 948 l -2 54 b 43 0 -7 24 13 0 l 227 0 b 291 54 257 0 286 24 l 448 918 b 403 972 453 948 433 972 z "},"J":{"ha":910,"x_min":0,"x_max":0,"o":"m 494 0 l 494 0 b 798 254 637 0 773 113 l 918 918 b 873 972 923 948 903 972 l 689 972 b 625 918 659 972 630 948 l 511 287 b 472 255 508 269 490 255 l 25 255 b -39 201 -5 255 -34 230 l -66 54 b -21 0 -71 24 -51 0 z "},"K":{"ha":1072,"x_min":0,"x_max":0,"o":"m 0 54 b 45 0 -6 24 14 0 l 228 0 b 293 54 258 0 287 24 l 307 132 b 318 153 308 139 312 147 l 450 278 l 626 18 b 664 -1 634 6 648 -1 l 950 -1 b 973 34 969 -1 983 20 l 673 478 b 676 492 671 482 672 488 l 1138 937 b 1128 973 1153 951 1147 973 l 842 973 b 797 954 826 973 809 966 l 404 575 b 389 584 385 561 389 584 l 449 918 b 404 972 454 948 434 972 l 220 972 b 156 918 190 972 161 948 z "},"L":{"ha":915,"x_min":0,"x_max":0,"o":"m 154 918 l -2 54 b 43 0 -7 24 13 0 l 761 0 b 826 54 791 0 820 24 l 852 201 b 807 255 858 230 837 255 l 360 255 b 333 287 342 255 330 269 l 447 918 b 402 972 453 948 433 972 l 219 972 b 154 918 189 972 160 948 z "},"M":{"ha":1382,"x_min":0,"x_max":0,"o":"m 219 971 b 154 917 189 971 160 947 l -2 54 b 43 0 -7 24 13 0 l 209 0 b 274 54 239 0 268 24 l 336 398 l 449 31 b 493 0 455 12 472 0 l 713 0 b 768 31 734 0 756 12 l 1014 399 l 952 54 b 997 0 946 24 967 0 l 1163 0 b 1227 54 1193 0 1222 24 l 1383 917 b 1338 971 1389 947 1369 971 l 1126 971 b 1070 940 1104 971 1083 959 l 666 335 b 642 339 660 325 645 327 l 476 940 b 431 971 470 959 453 971 z "},"N":{"ha":1163,"x_min":0,"x_max":0,"o":"m 404 545 l 704 19 b 742 0 712 7 726 0 l 943 0 b 1008 54 974 0 1003 24 l 1164 917 b 1119 971 1169 947 1149 971 l 937 971 b 872 918 906 971 877 947 l 791 468 b 766 464 789 456 773 453 l 491 952 b 452 971 483 964 469 971 l 220 971 b 156 918 190 971 161 947 l 0 54 b 45 0 -6 24 14 0 l 227 0 b 291 54 257 0 286 24 l 380 541 b 404 545 382 553 397 556 z "},"O":{"ha":1204,"x_min":0,"x_max":0,"o":"m 971 975 l 411 975 b 107 721 268 975 132 861 l 22 254 b 234 0 -3 114 92 0 l 795 0 b 1099 254 938 0 1074 114 l 1183 721 b 971 975 1209 861 1114 975 z m 810 287 b 772 254 807 269 790 254 l 349 254 b 322 287 331 254 319 269 l 395 692 b 434 724 399 709 416 724 l 856 724 b 883 692 875 724 887 709 z "},"P":{"ha":1125,"x_min":0,"x_max":0,"o":"m 1126 719 b 913 973 1151 859 1056 973 l 221 973 b 156 919 190 973 161 948 l 0 54 b 45 0 -6 24 14 0 l 228 0 b 293 54 258 0 287 24 l 325 233 b 338 244 326 239 332 244 l 782 245 b 1086 498 924 245 1060 358 z m 825 681 l 798 536 b 741 488 793 509 768 488 l 382 488 b 373 498 376 488 372 492 l 413 718 b 426 729 414 724 420 729 l 784 729 b 825 681 811 729 829 708 z "},"Q":{"ha":1204,"x_min":0,"x_max":0,"o":"m 1099 254 l 1183 721 b 971 975 1209 862 1114 975 l 410 975 b 107 721 268 975 132 862 l 22 254 b 234 0 -3 114 92 0 l 622 0 b 631 -7 626 0 630 -3 l 661 -137 b 698 -170 665 -155 680 -167 b 803 -148 732 -176 771 -160 b 909 -110 839 -136 874 -122 l 910 -110 b 953 -39 940 -99 960 -67 l 938 30 b 944 43 937 35 939 40 b 1099 254 1022 88 1083 165 z m 811 287 b 772 255 807 269 790 255 l 350 255 b 322 287 331 255 319 269 l 396 692 b 434 724 399 710 416 724 l 856 724 b 884 692 875 724 887 710 z "},"R":{"ha":1149,"x_min":0,"x_max":0,"o":"m 45 0 l 228 0 b 293 54 258 0 287 24 l 325 233 b 338 244 326 239 332 244 l 560 244 b 584 230 571 244 580 239 l 689 26 b 790 0 701 2 723 -1 b 983 3 829 0 888 3 b 1018 62 1014 3 1033 35 l 904 260 b 910 276 901 266 904 273 b 1086 498 998 319 1068 402 l 1126 719 b 914 973 1151 859 1056 973 l 221 973 b 156 919 190 973 161 949 l 0 54 b 45 0 -6 24 14 0 z m 413 719 b 426 729 414 725 420 729 l 784 729 b 825 681 812 729 829 708 l 798 536 b 741 488 793 509 768 488 l 382 488 b 373 499 376 488 372 493 z "},"S":{"ha":1106,"x_min":0,"x_max":0,"o":"m 686 0 l 686 0 l 714 0 b 1018 254 856 0 992 114 l 1034 344 b 822 598 1059 484 964 598 l 383 598 b 356 630 365 598 353 612 l 367 692 b 406 724 371 709 388 724 l 999 724 b 1064 778 1030 724 1059 748 l 1089 917 b 1044 972 1095 947 1075 972 l 396 972 b 92 718 253 972 117 858 l 74 619 b 286 365 49 479 144 365 l 725 365 b 752 333 743 365 755 351 l 744 287 b 705 255 740 269 723 255 l 95 255 b 30 201 65 255 36 230 l 4 54 b 49 0 -2 24 19 0 z "},"T":{"ha":983,"x_min":0,"x_max":0,"o":"m 1005 972 l 154 972 b 89 918 124 972 95 948 l 64 778 b 109 724 59 748 79 724 l 377 724 b 386 713 383 724 388 720 l 267 54 b 312 0 262 24 282 0 l 496 0 b 560 54 526 0 555 24 l 680 713 b 693 724 681 719 686 724 l 961 724 b 1025 778 991 724 1020 748 l 1051 918 b 1005 972 1056 948 1036 972 z "},"U":{"ha":1161,"x_min":0,"x_max":0,"o":"m 1124 975 l 946 975 b 881 921 916 975 887 950 l 767 289 b 728 256 764 271 746 256 l 345 256 b 318 289 327 256 315 271 l 432 921 b 387 975 437 950 417 975 l 213 975 b 148 921 183 975 154 950 l 28 254 b 239 1 2 115 97 1 l 716 0 b 716 0 716 0 716 0 l 744 0 b 1048 253 887 0 1023 113 l 1169 921 b 1124 975 1174 950 1154 975 z "},"V":{"ha":1088,"x_min":0,"x_max":0,"o":"m 1135 971 l 912 971 b 854 935 889 971 865 957 l 527 326 b 501 331 521 315 504 318 l 395 935 b 350 971 391 957 373 971 l 127 971 b 88 928 104 971 84 949 b 245 37 174 451 149 591 b 290 0 249 15 267 0 l 621 0 b 680 37 644 0 668 15 b 1158 928 964 570 898 447 b 1135 971 1170 949 1158 971 z "},"W":{"ha":1625,"x_min":0,"x_max":0,"o":"m 1674 971 l 1447 971 b 1389 935 1424 971 1401 957 l 1136 479 b 1110 484 1130 468 1113 471 l 1025 937 b 980 973 1021 959 1003 973 l 822 973 b 764 937 799 973 776 959 l 512 479 b 487 484 506 468 489 471 l 400 935 b 354 971 395 957 377 971 l 127 971 b 88 927 104 971 84 948 l 256 36 b 301 0 260 14 278 0 l 493 0 b 551 35 516 0 539 14 l 800 482 b 825 478 806 493 823 490 l 912 35 b 957 0 916 14 934 0 l 1149 0 b 1207 36 1172 0 1195 14 l 1697 927 b 1674 971 1709 948 1697 971 z "},"X":{"ha":1054,"x_min":0,"x_max":0,"o":"m 1081 971 l 813 971 b 765 949 795 971 777 963 l 586 754 b 563 757 580 747 568 749 l 457 949 b 416 971 449 963 434 971 l 148 971 b 112 919 121 971 100 941 l 338 515 b 331 477 344 504 341 488 l -60 52 b -42 1 -79 31 -69 1 l 226 1 b 274 23 244 1 262 9 l 472 238 b 494 235 478 245 490 243 l 612 23 b 653 1 620 9 635 1 l 921 1 b 957 52 948 1 969 31 l 720 477 b 727 515 714 488 716 504 l 1099 919 b 1081 971 1118 941 1108 971 z "},"Y":{"ha":996,"x_min":0,"x_max":0,"o":"m 1051 972 l 818 972 b 766 945 799 972 779 962 l 539 655 b 516 659 533 647 520 649 l 395 945 b 353 972 389 962 372 972 l 121 972 b 83 923 95 972 74 945 l 320 359 b 323 330 321 349 322 340 l 273 54 b 318 0 268 24 288 0 l 502 0 b 566 54 532 0 561 24 l 616 330 b 628 357 620 339 624 348 l 1070 923 b 1051 972 1087 945 1076 972 z "},"Z":{"ha":1046,"x_min":0,"x_max":0,"o":"m 1033 971 l 195 971 b 130 917 164 971 135 947 l 105 777 b 150 723 99 748 119 723 l 573 723 b 576 704 583 723 585 711 l 66 300 b -10 183 26 271 -2 228 l -34 54 b 11 0 -39 24 -19 0 l 857 0 b 922 54 888 0 917 24 l 948 200 b 903 254 954 230 934 254 l 479 254 b 476 273 469 254 467 266 l 980 678 b 1056 794 1020 707 1048 749 l 1078 917 b 1033 971 1084 947 1063 971 z "},"[":{"ha":589,"x_min":0,"x_max":0,"o":"m 605 1108 b 447 1108 539 1108 448 1108 b 143 855 304 1109 168 995 b 11 117 63 412 147 872 b 222 -137 -14 -23 80 -136 b 383 -138 284 -137 383 -138 b 450 -82 414 -138 444 -113 l 476 62 b 429 118 481 93 461 118 b 328 118 415 118 342 118 b 301 151 310 118 298 133 b 424 820 341 373 423 818 b 462 852 427 838 444 852 b 558 852 516 852 504 852 b 625 908 590 852 619 877 l 651 1052 b 605 1108 657 1083 636 1108 z "},"\\":{"ha":746,"x_min":0,"x_max":0,"o":"m 647 53 l 400 905 b 312 971 389 944 353 971 l 135 971 b 95 918 108 971 88 944 l 342 66 b 430 0 354 27 390 0 l 608 0 b 647 53 635 0 655 27 z "},"]":{"ha":589,"x_min":0,"x_max":0,"o":"m 367 1107 b 206 1108 305 1108 206 1108 b 140 1053 175 1108 145 1083 l 113 908 b 160 852 108 877 129 852 b 261 852 175 852 247 852 b 288 820 279 852 291 838 b 166 151 248 597 166 153 b 127 119 162 133 145 119 b 31 119 74 119 85 119 b -36 63 0 119 -30 94 l -62 -82 b -15 -138 -68 -113 -47 -138 b 143 -138 51 -138 141 -138 b 447 116 285 -138 421 -25 b 578 854 527 558 442 99 b 367 1107 604 994 509 1107 z "},"_":{"ha":669,"x_min":0,"x_max":0,"o":"m 580 0 l -86 0 b -146 -51 -114 0 -141 -23 l -173 -205 b -131 -256 -178 -233 -159 -256 l 534 -256 b 595 -205 563 -256 590 -233 l 622 -51 b 580 0 627 -23 608 0 z "},"a":{"ha":1086,"x_min":0,"x_max":0,"o":"m 755 840 b 689 890 741 880 706 890 b 573 891 677 890 589 891 l 573 891 b 454 841 529 889 486 885 l -53 74 b -20 0 -77 41 -58 0 l 191 0 b 239 26 209 0 228 10 l 272 72 l 287 95 l 698 95 l 718 28 b 756 0 724 11 738 0 l 956 0 b 1006 72 989 0 1017 39 z m 629 320 l 434 320 l 565 520 z "},"b":{"ha":1072,"x_min":0,"x_max":0,"o":"m 837 892 l 213 892 b 147 837 182 892 153 868 l 6 59 b 55 0 0 27 23 0 l 714 0 b 979 222 838 0 957 99 b 999 351 994 304 998 325 b 959 462 999 384 990 421 b 1023 578 992 495 1015 536 b 1023 582 1023 579 1023 580 l 1036 654 b 837 892 1060 786 971 892 z m 701 563 l 378 562 b 378 563 378 562 378 562 l 395 654 b 398 657 395 655 397 657 l 721 657 b 701 563 771 657 749 563 z m 666 244 l 321 244 b 321 244 321 244 321 244 l 337 335 b 341 338 338 337 339 338 l 686 338 b 666 244 735 338 714 244 z "},"c":{"ha":890,"x_min":0,"x_max":0,"o":"m 867 893 l 383 893 b 102 659 252 893 126 788 l 25 239 b 65 70 13 175 27 115 b 224 0 103 25 159 0 l 708 0 b 775 56 740 0 770 25 l 799 188 b 750 246 805 220 783 246 l 329 246 b 316 252 324 246 319 248 b 313 265 313 255 312 260 l 379 628 b 405 650 381 640 393 650 l 826 650 b 893 706 858 650 887 675 l 916 835 b 867 893 922 867 900 893 z "},"d":{"ha":1024,"x_min":0,"x_max":0,"o":"m 800 895 l 214 895 b 147 839 183 895 153 870 l 6 59 b 55 0 0 27 23 0 l 641 0 b 923 235 773 0 900 106 l 999 656 b 959 825 1011 720 996 780 b 800 895 921 870 865 895 z m 329 252 b 326 265 326 255 325 260 l 392 630 b 418 652 394 642 406 652 l 697 652 b 710 646 702 652 707 650 b 713 633 713 643 714 638 l 647 268 b 621 246 645 256 633 246 l 342 246 b 329 252 337 246 332 248 z "},"e":{"ha":960,"x_min":0,"x_max":0,"o":"m 950 893 l 213 893 b 146 838 182 893 152 868 l 5 59 l 5 59 b 15 17 3 43 6 28 b 55 0 25 6 39 0 l 791 0 b 835 36 812 0 831 16 l 866 207 b 859 235 867 218 865 227 b 833 246 852 242 843 246 l 321 246 l 336 330 b 339 333 336 332 338 333 l 751 333 b 795 369 772 333 791 349 l 822 521 b 815 548 824 531 821 541 b 789 560 809 556 800 560 l 378 560 l 394 650 b 397 653 394 651 396 653 l 909 653 b 953 689 930 653 949 669 l 982 854 b 950 893 986 875 971 893 z "},"f":{"ha":931,"x_min":0,"x_max":0,"o":"m 948 892 l 212 892 b 146 836 181 892 151 867 l 5 59 l 5 59 b 15 17 2 43 6 28 b 54 0 25 6 39 0 l 219 0 b 286 56 251 0 280 24 l 336 330 b 339 333 336 331 338 333 l 750 333 b 793 369 771 333 790 348 l 821 520 b 814 548 822 530 820 540 b 788 559 808 555 798 559 l 377 559 l 393 649 b 396 652 393 650 395 652 l 908 652 b 951 688 928 652 947 668 l 981 853 b 974 880 983 863 980 873 b 948 892 968 887 958 892 z "},"g":{"ha":1068,"x_min":0,"x_max":0,"o":"m 1018 890 l 382 890 b 100 654 250 890 123 784 l 25 239 b 224 0 1 107 90 0 b 860 -1 905 -1 824 -1 b 860 -1 860 -1 860 -1 b 927 54 891 -1 921 24 l 1007 501 b 997 543 1010 517 1007 531 b 958 560 988 554 974 560 l 548 560 b 505 524 527 560 508 544 l 477 373 b 484 345 475 362 478 353 b 510 333 490 338 500 333 l 698 334 l 683 249 b 680 246 683 248 681 246 l 329 246 b 316 252 324 246 319 248 b 313 265 313 255 312 260 l 378 628 b 405 650 381 640 393 650 l 978 650 b 1044 706 1009 650 1039 675 l 1067 831 b 1018 890 1073 864 1051 890 z "},"h":{"ha":1036,"x_min":0,"x_max":0,"o":"m 982 892 l 817 892 b 750 836 785 892 756 867 l 701 564 b 698 562 701 563 699 562 l 378 561 l 427 833 b 378 892 433 865 411 892 l 213 892 b 147 836 182 892 152 867 l 6 59 b 55 0 0 26 23 0 l 220 0 b 287 56 252 0 281 24 l 337 332 b 340 335 337 334 339 335 l 660 335 l 610 59 b 620 17 607 43 611 28 b 659 0 629 6 643 0 l 824 0 b 890 55 856 0 885 24 l 1031 833 l 1031 833 b 982 892 1037 865 1014 892 z "},"i":{"ha":433,"x_min":0,"x_max":0,"o":"m 379 892 l 213 892 b 147 836 182 892 152 867 l 6 59 b 16 17 3 43 7 28 b 55 0 26 6 40 0 l 220 0 b 287 56 252 0 281 24 l 427 833 b 379 892 433 865 411 892 z "},"j":{"ha":847,"x_min":0,"x_max":0,"o":"m 799 892 l 633 892 b 567 836 602 892 573 867 l 464 268 b 438 246 462 256 450 246 l 36 246 b -31 191 4 246 -25 222 l -54 59 b -44 17 -57 43 -54 29 b -5 0 -35 6 -21 0 l 458 0 b 740 235 590 0 716 106 l 848 833 b 837 874 850 849 847 863 b 799 892 828 886 814 892 z "},"k":{"ha":994,"x_min":0,"x_max":0,"o":"m 1030 893 l 773 893 b 726 873 756 893 739 885 l 374 533 b 373 533 373 533 373 533 b 373 533 373 533 373 533 l 427 833 b 378 892 433 865 411 892 l 213 892 b 147 836 182 892 152 867 l 6 59 b 55 0 0 27 23 0 l 220 0 b 287 56 252 0 281 24 l 300 125 b 308 140 301 131 303 136 l 418 246 l 571 20 b 613 -1 580 7 595 -1 l 870 -1 b 899 17 882 -1 893 6 b 898 44 903 26 903 36 l 628 443 b 629 445 628 443 628 444 l 1045 846 b 1030 893 1064 864 1054 893 z "},"l":{"ha":854,"x_min":0,"x_max":0,"o":"m 743 246 l 341 246 b 328 252 335 246 331 248 b 325 265 325 255 324 260 l 427 833 b 378 892 433 865 411 892 l 213 892 b 147 836 182 892 152 867 l 6 59 b 16 17 3 43 7 28 b 55 0 26 6 40 0 l 701 0 b 768 55 733 0 762 24 l 792 188 b 743 246 797 220 775 246 z "},"m":{"ha":1275,"x_min":0,"x_max":0,"o":"m 1221 891 l 1029 891 b 972 859 1007 891 985 879 l 609 314 b 605 313 608 313 606 313 b 602 316 605 313 603 313 l 452 857 b 405 891 446 878 428 891 l 213 891 b 147 836 182 891 152 867 l 6 59 b 55 0 0 27 23 0 l 204 0 b 271 56 236 0 265 24 l 321 331 l 412 34 b 460 0 418 13 437 0 l 658 0 b 715 32 680 0 702 13 l 914 329 l 865 59 b 875 17 862 43 865 28 b 914 0 884 6 898 0 l 1063 0 b 1129 56 1094 0 1124 24 l 1270 833 b 1221 891 1276 865 1254 891 z "},"n":{"ha":1075,"x_min":0,"x_max":0,"o":"m 1021 891 l 857 891 b 790 836 825 891 796 867 l 717 431 b 715 429 717 430 716 429 b 711 430 714 429 712 428 l 463 870 b 421 891 454 884 439 891 l 212 891 b 146 836 181 891 151 867 l 5 59 b 54 0 -1 27 22 0 l 218 0 b 285 56 250 0 279 25 l 364 494 l 364 494 b 366 496 364 495 365 496 b 371 495 367 496 369 497 l 640 21 b 682 0 649 8 665 0 l 863 0 b 930 56 895 0 924 24 l 1070 833 b 1021 891 1076 865 1053 891 z "},"o":{"ha":1113,"x_min":0,"x_max":0,"o":"m 888 894 l 384 894 b 102 659 252 894 125 789 l 26 238 b 225 0 2 108 90 0 l 730 0 b 1012 235 862 0 988 106 l 1088 656 b 888 894 1111 786 1023 894 z m 313 265 l 379 629 b 405 652 381 641 393 652 l 785 652 b 798 646 790 652 795 650 b 801 632 801 643 802 638 l 735 268 b 709 246 733 256 721 246 l 329 246 b 316 252 323 246 319 248 b 313 265 313 255 312 260 z "},"p":{"ha":1039,"x_min":0,"x_max":0,"o":"m 837 892 l 213 892 b 147 837 182 892 153 867 l 6 59 b 55 0 0 26 23 0 l 220 0 b 287 56 252 0 281 24 l 316 217 b 319 220 316 218 318 220 l 719 220 b 1000 455 851 220 977 326 l 1036 654 b 837 892 1060 785 971 892 z m 749 623 l 725 492 b 682 456 721 472 702 456 l 359 456 l 395 654 b 398 656 395 655 397 656 l 721 656 b 743 647 730 657 738 653 b 749 623 748 641 750 632 z "},"q":{"ha":1113,"x_min":0,"x_max":0,"o":"m 889 895 l 384 895 b 102 659 252 895 125 789 l 26 238 b 67 70 14 175 29 115 b 225 0 104 25 161 0 l 574 1 l 601 -117 b 621 -146 604 -129 611 -139 b 685 -151 639 -157 666 -156 b 757 -128 710 -145 734 -138 b 833 -100 782 -118 807 -109 b 837 -98 834 -99 835 -99 b 881 -25 868 -87 887 -54 l 866 37 b 868 39 866 37 867 39 b 1012 235 944 83 998 156 l 1088 656 b 889 895 1112 788 1022 895 z m 313 265 l 379 630 b 405 652 381 642 393 652 l 785 652 b 798 646 791 652 795 650 b 801 633 801 643 802 638 l 735 268 b 709 246 733 256 721 246 l 329 246 b 316 252 324 246 319 248 b 313 265 313 255 312 260 z "},"r":{"ha":1064,"x_min":0,"x_max":0,"o":"m 837 892 l 214 892 b 147 837 182 892 153 868 l 6 59 b 55 0 0 26 23 0 l 220 0 b 287 56 252 0 281 24 l 316 217 b 319 220 316 218 318 220 l 519 220 b 533 212 525 220 531 217 l 626 29 b 706 0 638 5 659 0 b 899 3 781 0 811 3 b 937 24 915 3 929 11 b 937 69 945 38 945 55 l 836 247 b 838 249 836 247 836 248 b 1000 455 923 290 985 369 l 1036 654 b 837 892 1060 786 971 892 z m 749 623 l 725 492 b 682 456 722 472 702 456 l 359 456 b 359 456 359 456 359 456 l 395 654 b 398 657 395 655 397 657 l 721 657 b 743 647 730 657 738 653 b 749 623 749 641 751 632 z "},"s":{"ha":1022,"x_min":0,"x_max":0,"o":"m 954 891 l 371 891 b 89 656 239 891 112 786 l 73 567 b 113 399 61 504 76 444 b 272 329 151 354 207 329 l 667 329 b 680 323 672 329 677 327 b 683 310 683 320 684 315 l 675 268 b 649 246 673 256 661 246 l 100 246 b 33 191 68 246 39 222 l 9 59 b 58 0 4 27 26 0 l 657 0 b 939 235 789 0 915 105 l 953 317 b 913 485 965 380 950 440 b 754 555 875 530 819 555 l 359 555 b 346 561 354 555 349 557 b 343 574 344 564 342 569 l 353 629 b 380 651 356 641 368 651 l 914 651 b 981 707 946 651 975 676 l 1003 833 b 954 891 1009 865 987 891 z "},"t":{"ha":910,"x_min":0,"x_max":0,"o":"m 917 892 l 151 892 b 84 836 119 892 90 867 l 62 710 b 72 669 59 695 62 680 b 111 652 81 658 95 652 l 352 652 l 244 59 b 255 17 242 43 245 28 b 293 0 264 6 278 0 l 459 0 b 525 56 490 0 519 24 l 632 649 b 636 652 633 650 634 652 l 877 652 b 944 707 909 652 938 676 l 966 833 l 966 833 b 917 892 972 865 950 892 z "},"u":{"ha":1074,"x_min":0,"x_max":0,"o":"m 1026 894 l 866 894 b 800 839 835 894 805 870 l 697 270 b 670 248 695 258 683 248 l 325 248 b 312 253 320 248 315 250 b 309 267 309 257 308 262 l 412 836 b 363 894 418 868 396 894 l 206 894 b 140 839 175 894 145 869 l 31 239 b 230 1 8 109 96 1 l 659 0 l 661 0 l 685 0 b 685 0 685 0 685 0 b 967 235 817 0 943 105 l 1075 836 l 1075 836 b 1026 894 1081 868 1059 894 z "},"v":{"ha":1006,"x_min":0,"x_max":0,"o":"m 1035 891 l 834 891 b 774 854 810 891 786 876 l 480 306 b 476 304 479 304 478 304 b 473 308 476 304 473 305 l 377 851 b 328 891 373 875 353 891 l 128 891 b 84 842 102 891 80 866 l 108 711 b 197 201 150 473 150 473 l 225 40 b 274 0 229 16 250 0 l 572 0 b 632 37 596 0 620 15 l 709 181 b 999 720 859 461 859 461 l 1063 839 l 1063 839 b 1063 875 1070 851 1070 865 b 1035 891 1057 885 1047 891 z "},"w":{"ha":1489,"x_min":0,"x_max":0,"o":"m 1548 875 b 1520 891 1543 885 1532 891 l 1315 891 b 1255 855 1291 891 1268 877 l 1028 444 b 1024 442 1027 442 1025 442 b 1021 446 1023 442 1021 443 l 944 854 b 895 892 940 877 920 892 l 752 892 b 693 856 729 892 705 878 l 466 444 b 463 442 465 442 464 442 b 459 445 462 442 460 443 l 381 852 b 332 891 376 875 357 891 l 127 891 b 93 874 115 891 102 884 b 84 841 85 864 82 853 l 235 39 b 284 0 239 16 259 0 l 457 0 b 516 36 480 0 504 14 l 740 438 b 744 440 741 440 743 440 b 747 437 744 440 747 439 l 825 39 b 874 0 829 15 849 0 l 1047 0 b 1107 36 1071 0 1095 15 l 1547 839 b 1548 875 1554 851 1555 864 z "},"x":{"ha":979,"x_min":0,"x_max":0,"o":"m 989 891 l 747 891 b 697 868 729 891 710 882 l 536 693 b 533 692 535 692 534 692 b 530 694 532 692 531 693 l 434 866 b 390 891 425 882 409 891 l 149 891 b 110 868 133 891 118 882 b 109 832 103 856 103 843 l 312 468 b 307 443 316 461 314 451 l -44 61 b -53 20 -56 49 -59 33 b -23 1 -48 8 -36 1 l 219 1 b 269 23 237 1 256 9 l 447 217 b 450 218 448 218 449 218 b 453 216 450 218 452 217 l 559 25 b 603 1 568 10 584 1 l 845 1 b 883 23 860 1 875 9 b 884 59 890 35 890 49 l 671 442 b 676 466 667 449 669 459 l 1011 830 b 1019 872 1022 842 1025 858 b 989 891 1014 884 1003 891 z "},"y":{"ha":921,"x_min":0,"x_max":0,"o":"m 983 834 b 958 892 1002 859 988 892 l 749 892 b 695 865 729 892 709 882 l 491 603 b 488 602 490 602 489 602 b 485 605 488 602 486 603 l 376 863 b 331 892 369 881 352 892 l 121 892 b 84 871 107 892 93 884 b 80 836 77 860 75 847 l 292 330 b 295 306 293 322 294 314 l 250 59 b 299 0 244 27 267 0 l 464 0 b 531 56 496 0 525 24 l 576 303 l 585 325 l 983 834 z "},"z":{"ha":971,"x_min":0,"x_max":0,"o":"m 944 891 l 190 891 b 123 835 158 891 129 866 l 100 710 b 149 651 94 678 117 651 l 530 652 b 528 649 530 651 529 650 l 69 285 b -3 175 31 258 5 218 l -24 59 b 25 0 -30 27 -8 0 l 786 0 b 853 56 818 0 847 24 l 876 187 b 827 246 882 219 860 246 l 446 245 b 448 248 446 245 446 246 l 902 612 b 973 722 939 639 965 679 l 993 832 b 944 891 999 864 977 891 z "},"{":{"ha":661,"x_min":0,"x_max":0,"o":"m 678 1108 b 520 1108 612 1108 521 1108 b 216 855 377 1109 241 995 b 203 786 211 829 207 806 b 155 678 196 746 180 709 l 61 557 b 54 525 53 548 50 536 b 54 523 54 524 54 524 l 98 418 b 113 279 117 374 122 326 b 84 117 105 232 95 178 b 295 -137 59 -23 154 -136 b 456 -138 358 -137 456 -138 b 523 -82 487 -138 517 -113 b 549 62 523 -82 549 62 b 520 114 553 84 539 105 b 513 116 517 115 515 116 b 484 118 504 119 494 118 b 436 118 468 118 452 118 b 385 179 404 118 380 147 b 406 294 393 222 400 260 b 394 403 413 331 409 369 b 344 523 373 454 344 523 b 343 525 344 524 344 524 b 351 557 340 536 343 548 l 453 688 b 491 773 472 713 485 742 b 496 799 492 781 494 790 b 558 852 501 829 527 851 b 631 852 593 852 631 852 b 698 908 663 852 693 877 l 725 1052 b 678 1108 730 1083 709 1108 z "},"|":{"ha":449,"x_min":0,"x_max":0,"o":"m 432 1130 l 249 1130 b 185 1076 219 1130 191 1106 b -29 -104 182 1057 123 737 b 16 -158 -34 -134 -14 -158 l 199 -158 b 263 -104 229 -158 258 -134 b 477 1076 269 -71 464 1005 b 432 1130 482 1106 462 1130 z "},"}":{"ha":663,"x_min":0,"x_max":0,"o":"m 627 546 b 627 547 627 546 627 547 l 582 653 b 567 792 564 697 559 745 b 577 854 575 839 566 792 b 366 1107 602 994 508 1107 b 205 1108 304 1108 205 1108 b 138 1053 174 1108 144 1083 b 112 908 138 1053 112 909 b 122 869 110 894 113 880 b 148 854 129 861 138 857 b 225 852 173 848 204 852 b 276 792 257 852 281 823 b 274 776 268 749 280 811 b 286 668 268 740 272 702 b 337 547 308 617 337 547 b 337 546 337 547 337 546 b 330 513 341 535 337 523 l 228 383 b 170 198 208 358 176 229 b 166 172 169 190 167 181 b 103 119 160 142 134 119 b 30 119 68 119 30 119 b -37 63 -2 119 -32 93 l -63 -82 b -17 -138 -69 -112 -48 -138 b 141 -138 49 -138 140 -138 b 445 116 284 -138 420 -25 b 477 285 450 142 474 265 b 526 393 484 324 501 362 l 619 513 b 627 546 627 523 631 535 z "}," ":{"ha":618,"x_min":0,"x_max":0,"o":""},"¡":{"ha":426,"x_min":0,"x_max":0,"o":"m 283 361 l 100 361 b 35 307 69 361 41 337 l -55 -191 b -10 -245 -60 -221 -40 -245 l 173 -245 b 238 -191 204 -245 233 -221 l 328 307 b 283 361 334 337 313 361 z m 348 726 l 164 726 b 100 672 134 726 105 702 l 68 489 b 114 435 63 459 83 435 l 297 435 b 362 489 327 435 356 459 l 393 672 b 348 726 398 702 378 726 z "},"¢":{"ha":911,"x_min":0,"x_max":0,"o":"m 872 933 l 667 933 l 679 998 b 659 1021 681 1010 672 1021 l 593 1021 b 567 999 581 1021 569 1011 l 555 933 l 389 933 b 107 698 257 933 131 828 l 30 278 b 70 110 18 215 33 155 b 229 40 108 64 164 40 l 396 40 l 384 -25 b 388 -42 383 -31 385 -37 b 404 -49 392 -46 398 -49 l 470 -48 b 496 -26 482 -48 494 -39 l 508 40 l 714 40 b 780 95 745 40 775 64 l 804 227 b 755 286 810 259 788 286 l 334 286 b 321 291 329 286 324 288 b 318 305 318 295 317 300 l 384 668 b 410 690 386 680 398 690 l 831 690 b 898 745 863 690 892 714 l 921 874 b 872 933 927 906 905 933 z "},"£":{"ha":975,"x_min":0,"x_max":0,"o":"m 886 968 l 538 968 b 234 714 395 968 259 854 l 216 615 b 213 594 215 608 214 601 b 142 594 191 594 167 594 b 83 545 114 594 88 572 l 59 411 b 100 362 54 384 72 362 l 178 362 b 182 341 182 357 184 349 l 171 280 b 132 248 168 262 150 248 b 71 248 113 248 92 248 l 67 248 b 3 194 37 248 8 223 l -23 54 b 23 0 -28 24 -8 0 b 791 0 107 0 5 0 b 854 52 821 0 849 23 l 880 195 b 836 248 885 224 866 248 b 445 248 534 248 661 248 b 466 362 448 264 464 346 l 643 362 b 702 411 671 362 697 384 l 726 545 b 685 594 731 572 712 594 b 527 594 666 594 546 594 b 526 594 526 594 526 594 b 525 594 526 594 525 594 b 498 626 507 594 495 608 l 509 688 b 548 720 513 705 530 720 l 841 720 b 906 774 871 720 900 744 l 931 913 b 886 968 936 943 916 968 z "},"¥":{"ha":1053,"x_min":0,"x_max":0,"o":"m 1075 972 l 843 972 b 791 945 823 972 804 962 l 564 655 b 540 658 558 647 544 649 l 420 945 b 378 972 413 962 397 972 l 145 972 b 108 923 120 972 99 944 l 308 445 l 289 445 b 289 445 289 445 289 445 l 166 445 b 140 423 154 445 142 436 l 128 359 b 147 335 126 346 134 335 l 347 335 b 348 330 347 334 348 332 l 335 262 l 261 262 b 260 262 261 262 261 262 l 138 262 b 111 240 125 262 114 252 l 100 175 b 119 152 97 163 106 152 l 316 152 l 298 54 b 343 0 292 24 313 0 l 526 0 b 591 54 557 0 586 24 l 609 152 l 745 151 b 746 151 745 151 746 151 l 832 151 b 859 173 845 151 856 161 l 870 238 b 866 254 872 244 870 250 b 851 261 863 259 857 261 l 629 262 l 641 330 b 643 335 642 332 642 333 l 773 335 b 774 335 774 335 774 335 l 860 335 b 887 357 873 335 885 344 l 899 421 b 895 438 900 428 898 433 b 879 445 891 442 885 445 l 722 445 l 1095 923 b 1075 972 1112 944 1101 972 z "},"§":{"ha":760,"x_min":0,"x_max":0,"o":"m 592 692 l 319 692 b 266 755 285 692 260 721 l 275 808 b 337 859 280 837 307 859 l 630 859 b 662 886 645 859 659 871 l 673 948 b 654 970 675 960 666 970 l 329 970 b 143 815 242 970 158 901 b 137 653 123 702 121 709 l 122 639 b 74 552 97 615 80 585 l 48 420 b 168 278 33 341 85 278 l 440 278 b 493 214 475 278 499 248 l 484 163 b 422 112 478 134 452 112 l 124 112 b 93 86 110 112 95 100 l 81 24 b 100 1 79 12 88 1 l 430 1 b 616 156 517 1 600 71 b 621 318 635 261 640 259 l 635 333 b 686 428 662 361 680 394 l 712 550 b 592 692 726 627 675 692 z m 574 528 l 555 429 b 493 378 549 400 523 378 b 238 378 433 378 331 378 b 185 441 204 378 179 407 l 206 541 b 267 592 211 569 237 592 l 521 592 b 574 528 556 592 580 562 z "},"©":{"ha":1082,"x_min":0,"x_max":0,"o":"m 781 719 l 459 719 b 317 600 393 719 329 666 l 275 369 b 294 286 269 337 276 308 b 371 253 312 265 340 253 l 694 253 b 717 272 705 253 716 262 l 731 345 b 728 357 731 350 730 354 b 717 362 725 360 721 362 l 429 362 b 412 370 423 362 416 365 b 408 388 408 375 406 381 l 444 588 b 471 611 446 601 458 611 l 759 611 b 782 631 770 611 780 620 l 795 702 b 793 714 796 707 795 711 b 781 719 790 717 786 719 z m 827 920 b 367 919 350 920 384 920 b 100 677 240 908 124 807 b 35 318 79 562 74 532 b 254 51 7 160 116 51 b 714 52 731 51 697 51 b 981 294 841 64 957 164 b 1046 653 1002 410 1007 439 b 827 920 1074 811 965 920 z m 938 677 l 889 407 l 868 313 b 756 175 855 252 814 199 b 718 164 744 170 731 166 b 254 162 698 161 732 162 b 143 294 177 162 129 219 l 192 564 l 214 666 b 268 760 222 702 240 735 b 363 807 295 784 328 801 b 827 810 383 811 349 810 b 938 677 904 810 951 752 z "},"ª":{"ha":650,"x_min":0,"x_max":0,"o":"m 579 283 l 440 709 b 407 734 431 735 407 734 b 372 734 394 734 383 734 b 364 734 369 734 367 734 b 360 734 363 734 362 734 b 338 734 352 734 345 735 l 338 734 b 338 734 338 734 338 734 l 338 734 b 281 709 313 733 295 729 l -1 283 b -4 260 -6 276 -7 267 b 14 249 -1 253 5 249 l 131 249 b 153 261 139 249 148 254 l 172 287 l 181 302 l 416 302 l 428 261 b 444 249 430 254 437 249 l 555 249 b 575 260 563 249 570 253 b 579 283 580 267 581 276 z m 257 418 l 340 544 l 380 418 z "},"«":{"ha":1090,"x_min":0,"x_max":0,"o":"m 349 462 b 355 496 343 472 345 486 l 601 753 b 590 802 622 774 616 802 l 357 802 b 301 775 338 802 316 792 b 45 508 117 583 43 506 b 34 450 28 491 24 467 b 184 195 131 290 134 278 b 231 169 194 179 212 169 l 464 169 b 492 218 489 169 505 196 z m 1089 753 b 1078 802 1110 774 1104 802 l 846 802 b 789 775 826 802 805 792 b 533 508 605 583 531 506 b 523 450 516 491 512 467 b 672 195 619 290 622 278 b 719 169 682 179 700 169 l 952 169 b 980 218 977 169 993 196 l 837 462 b 843 496 831 472 834 486 z "},"­":{"ha":0,"x_min":0,"x_max":0,"o":""},"®":{"ha":569,"x_min":0,"x_max":0,"o":"m 410 861 l 257 861 b 243 849 250 861 244 856 l 208 658 b 218 646 207 651 212 646 l 259 646 b 273 658 266 646 272 651 l 280 698 b 283 700 281 699 282 700 l 332 700 b 338 697 335 700 337 699 l 361 652 b 383 646 363 646 368 646 b 426 647 392 646 405 647 b 434 660 433 647 437 654 l 408 704 b 410 707 408 705 408 706 b 449 756 429 717 445 735 l 457 805 b 410 861 463 836 442 861 z m 385 765 b 372 754 384 759 378 754 l 293 754 b 291 756 292 754 291 755 l 300 805 b 303 807 300 806 301 807 l 382 807 b 391 797 388 807 392 803 z m 567 935 b 477 975 545 960 512 975 l 349 975 b 247 975 252 975 252 975 l 246 974 b 109 850 180 968 121 915 l 100 801 b 76 671 95 772 89 742 b 100 572 70 633 78 598 b 190 532 121 547 154 532 l 316 532 b 362 532 335 532 350 532 b 419 533 414 532 415 532 l 421 533 b 557 657 487 539 546 592 l 566 704 b 590 837 572 734 577 764 b 567 935 597 874 588 909 z m 528 850 l 503 715 l 493 668 b 439 602 486 638 466 613 b 421 597 433 600 427 598 l 420 597 b 309 596 414 596 413 596 l 190 596 b 149 613 173 596 158 602 b 139 657 139 625 136 640 l 163 792 l 174 843 b 200 888 178 861 187 876 b 245 910 213 899 229 907 l 247 910 b 311 911 251 911 253 911 b 358 911 323 911 339 911 l 477 911 b 518 894 494 911 508 905 b 528 850 527 883 531 867 z "},"°":{"ha":617,"x_min":0,"x_max":0,"o":"m 558 1088 l 277 1088 b 125 962 206 1088 138 1032 l 83 728 b 189 601 70 658 118 601 l 470 601 b 621 728 541 601 609 658 l 664 962 b 558 1088 676 1032 629 1088 z m 477 744 b 458 728 476 735 467 728 l 247 728 b 233 744 238 728 232 735 l 270 947 b 289 963 271 956 280 963 l 500 963 b 514 947 509 963 515 956 z "},"²":{"ha":596,"x_min":0,"x_max":0,"o":"m 506 976 l 181 976 b 149 949 166 976 151 964 l 137 879 b 159 852 134 864 144 852 l 457 852 b 471 836 466 852 473 845 l 466 805 b 446 789 464 796 456 789 l 226 789 b 75 661 155 789 87 732 l 67 616 b 175 489 55 546 103 489 l 494 489 l 508 488 b 541 515 524 488 538 501 l 553 589 b 530 616 556 604 545 616 l 224 616 b 211 632 215 616 209 623 l 215 655 b 234 672 216 664 225 672 l 454 672 b 605 799 525 672 593 729 l 614 849 b 506 976 626 919 578 976 z "},"³":{"ha":575,"x_min":0,"x_max":0,"o":"m 485 976 l 160 976 b 128 949 145 976 130 964 l 116 879 b 139 852 113 864 123 852 l 436 852 b 450 836 446 852 452 845 l 445 805 b 425 789 443 796 435 789 l 261 789 b 229 761 246 789 232 776 b 219 703 226 744 222 721 b 241 676 216 688 226 676 l 406 676 b 419 660 415 676 421 669 l 414 629 b 394 613 412 620 403 613 l 96 613 b 64 586 81 613 67 601 l 51 516 b 74 489 48 501 59 489 l 399 489 b 552 616 471 489 539 546 l 561 666 b 552 732 565 690 561 713 b 584 799 568 752 580 774 l 593 849 b 485 976 605 919 557 976 z "},"·":{"ha":340,"x_min":0,"x_max":0,"o":"m 270 613 l 116 613 b 56 562 88 613 61 590 l 29 408 b 71 357 24 380 43 357 l 225 357 b 285 408 253 357 280 380 l 313 562 b 270 613 317 591 299 613 z "},"¹":{"ha":329,"x_min":0,"x_max":0,"o":"m 331 975 l 158 975 b 125 948 142 975 128 963 l 112 874 b 135 847 109 859 119 847 l 172 847 b 186 831 181 847 187 840 l 128 512 b 151 485 125 497 135 485 l 243 485 b 275 512 258 485 272 497 l 354 948 b 331 975 357 963 346 975 z "},"º":{"ha":643,"x_min":0,"x_max":0,"o":"m 506 733 l 226 733 b 74 607 154 733 86 677 l 31 373 b 137 246 19 303 66 246 l 418 246 b 570 373 489 246 557 303 l 612 607 b 506 733 625 677 577 733 z m 425 389 b 406 373 424 380 415 373 l 195 373 b 181 389 186 373 180 380 l 218 592 b 237 608 220 601 228 608 l 448 608 b 462 592 458 608 464 601 z "},"»":{"ha":1090,"x_min":0,"x_max":0,"o":"m 567 521 b 418 775 471 681 468 692 b 371 802 408 792 390 802 l 138 802 b 110 753 113 802 97 774 l 253 509 b 247 475 259 499 256 485 l 1 218 b 12 169 -20 196 -14 169 l 244 169 b 301 195 264 169 285 179 b 557 463 485 387 559 465 b 567 521 573 480 578 504 z m 1055 521 b 906 775 959 681 956 692 b 859 802 896 792 878 802 l 626 802 b 598 753 601 802 585 774 l 741 509 b 735 475 747 499 744 485 l 489 218 b 500 169 468 196 474 169 l 732 169 b 789 195 752 169 773 179 b 1045 463 973 387 1047 465 b 1055 521 1062 480 1066 504 z "},"¿":{"ha":842,"x_min":0,"x_max":0,"o":"m 405 435 l 588 435 b 653 489 618 435 647 459 l 684 672 b 639 726 689 702 669 726 l 455 726 b 391 672 425 726 396 702 l 359 489 b 405 435 354 459 374 435 z m 726 3 l 262 3 b 235 35 243 3 231 17 b 336 129 252 129 241 129 b 609 297 448 129 555 199 b 608 340 616 310 616 327 b 570 361 600 353 586 361 b 272 361 468 361 383 361 b -32 108 130 361 -6 248 l -50 9 b 161 -245 -76 -131 19 -245 l 680 -245 b 745 -191 711 -245 740 -221 l 771 -51 b 726 3 776 -22 756 3 z "},"À":{"ha":1178,"x_min":0,"x_max":0,"o":"m 1094 68 l 815 920 b 749 970 798 971 749 970 b 681 971 723 970 701 971 b 664 971 675 971 670 970 b 657 971 662 971 659 971 b 613 970 641 971 626 971 l 613 970 b 612 970 612 970 612 970 l 612 970 b 497 920 562 969 526 959 l -66 68 b -73 22 -76 53 -79 36 b -37 0 -67 9 -53 0 l 197 0 b 243 25 215 0 232 10 l 279 76 l 298 105 l 768 105 l 792 25 b 825 0 797 10 810 0 l 1047 0 b 1086 22 1061 0 1076 9 b 1094 68 1095 36 1098 53 z m 450 337 l 616 590 l 696 337 z m 634 1122 b 689 1096 648 1105 668 1096 b 837 1096 732 1096 788 1096 b 859 1108 846 1096 854 1100 b 859 1132 863 1115 863 1124 l 742 1344 b 679 1381 729 1366 705 1381 b 467 1381 654 1381 540 1381 b 445 1367 458 1381 449 1375 b 449 1341 441 1358 442 1348 z "},"Á":{"ha":1178,"x_min":0,"x_max":0,"o":"m 1094 68 l 815 920 b 749 970 798 971 749 970 b 681 971 723 970 701 971 b 664 971 675 971 670 970 b 657 971 662 971 659 971 b 613 970 641 971 626 971 l 613 970 b 612 970 612 970 612 970 l 612 970 b 497 920 562 969 526 959 l -66 68 b -73 22 -76 53 -79 36 b -37 0 -67 9 -53 0 l 197 0 b 243 25 215 0 232 10 l 279 76 l 298 105 l 768 105 l 792 25 b 825 0 797 10 810 0 l 1047 0 b 1085 22 1061 0 1076 9 b 1094 68 1095 36 1098 53 z m 450 337 l 616 590 l 696 337 z m 602 1096 b 745 1096 649 1096 703 1096 b 814 1116 770 1096 792 1093 l 1030 1339 b 1035 1366 1037 1347 1039 1357 b 1013 1381 1031 1375 1023 1381 b 783 1381 923 1381 827 1381 b 729 1352 761 1381 741 1370 l 581 1134 b 580 1109 576 1126 576 1117 b 602 1096 584 1101 593 1096 z "},"Â":{"ha":1178,"x_min":0,"x_max":0,"o":"m 1094 68 l 815 920 b 749 970 798 971 749 970 b 681 971 723 970 701 971 b 664 971 675 971 670 970 b 657 971 662 971 659 971 b 613 970 641 971 626 971 l 613 970 b 612 970 612 970 612 970 l 612 970 b 497 920 562 969 526 959 l -66 68 b -73 22 -76 53 -79 36 b -37 0 -67 9 -53 0 l 197 0 b 243 25 215 0 232 10 l 279 76 l 298 105 l 768 105 l 792 25 b 825 0 797 10 810 0 l 1047 0 b 1086 22 1061 0 1076 9 b 1094 68 1095 36 1098 53 z m 450 337 l 616 590 l 696 337 z m 398 1100 b 577 1100 461 1100 556 1100 b 625 1121 595 1100 613 1108 l 694 1195 l 749 1127 b 805 1100 763 1110 784 1100 b 874 1100 833 1100 856 1100 b 947 1100 875 1100 894 1100 b 967 1100 953 1100 959 1100 b 989 1114 976 1100 984 1105 b 986 1140 993 1122 992 1132 l 824 1345 b 777 1367 812 1359 795 1367 b 653 1367 740 1367 705 1367 b 549 1326 609 1367 573 1353 l 380 1141 b 375 1115 373 1134 371 1123 b 398 1100 379 1106 388 1100 z "},"Ã":{"ha":1178,"x_min":0,"x_max":0,"o":"m 1094 68 l 815 920 b 749 970 798 971 749 970 b 681 971 723 970 701 971 b 664 971 675 971 670 970 b 657 971 662 971 659 971 b 613 970 641 971 626 971 l 613 970 b 612 970 612 970 612 970 l 612 970 b 497 920 562 969 526 959 l -66 68 b -73 22 -76 53 -79 36 b -37 0 -67 9 -53 0 l 197 0 b 243 25 215 0 232 10 l 279 76 l 298 105 l 768 105 l 792 25 b 825 0 797 10 810 0 l 1047 0 b 1086 22 1061 0 1076 9 b 1094 68 1095 36 1098 53 z m 450 337 l 616 590 l 696 337 z m 420 1127 l 532 1127 b 569 1172 558 1127 555 1158 b 649 1167 592 1195 627 1185 b 698 1138 664 1156 681 1145 b 813 1124 735 1122 775 1125 b 996 1319 926 1121 990 1217 l 996 1324 b 972 1350 997 1338 986 1350 b 858 1350 972 1350 858 1350 b 823 1310 834 1350 835 1324 b 761 1301 807 1292 781 1291 b 730 1321 750 1306 741 1315 b 695 1339 718 1327 707 1334 b 450 1299 651 1361 517 1373 b 396 1154 411 1255 401 1208 b 420 1127 395 1140 406 1127 z "},"Ä":{"ha":1178,"x_min":0,"x_max":0,"o":"m 1094 68 l 815 920 b 749 970 798 972 749 970 b 681 971 723 970 701 971 b 664 971 675 971 670 971 b 657 971 662 971 659 971 b 613 971 641 971 626 971 l 613 970 b 612 970 612 970 612 970 l 612 971 b 497 920 562 969 526 959 l -66 68 b -73 22 -76 54 -79 36 b -37 0 -67 9 -53 0 l 197 0 b 243 25 215 0 232 10 l 279 76 l 298 105 l 768 105 l 792 25 b 825 0 797 10 810 0 l 1047 0 b 1085 23 1061 0 1076 9 b 1094 68 1095 36 1098 54 z m 450 337 l 616 590 l 696 337 z m 780 1068 l 930 1068 b 988 1118 957 1068 983 1090 l 1015 1267 b 974 1317 1019 1295 1001 1317 l 824 1317 b 766 1267 797 1317 771 1294 l 739 1118 b 780 1068 735 1090 753 1068 z m 380 1068 l 530 1068 b 588 1118 557 1068 583 1090 l 615 1267 b 574 1317 619 1295 601 1317 l 424 1317 b 366 1267 397 1317 371 1294 l 339 1118 b 380 1068 335 1090 353 1068 z "},"Å":{"ha":1178,"x_min":0,"x_max":0,"o":"m 1094 68 l 815 920 b 749 970 798 971 749 970 b 681 971 723 970 701 971 b 664 971 675 971 670 970 b 657 971 662 971 659 971 b 613 970 641 971 626 971 l 613 970 b 612 970 612 970 612 970 l 612 970 b 497 920 562 969 526 959 l -66 68 b -73 22 -76 53 -79 36 b -37 0 -67 9 -53 0 l 197 0 b 243 25 215 0 232 10 l 279 76 l 298 105 l 768 105 l 792 25 b 825 0 797 10 810 0 l 1047 0 b 1085 22 1061 0 1076 9 b 1094 68 1095 36 1098 53 z m 450 337 l 616 590 l 696 337 z m 666 1068 b 671 1068 668 1068 670 1068 b 676 1068 673 1068 674 1068 b 681 1068 678 1068 679 1068 b 686 1068 683 1068 684 1068 b 691 1068 687 1068 689 1068 b 695 1068 692 1068 694 1068 b 878 1240 799 1065 872 1145 b 713 1425 883 1341 809 1428 b 708 1425 711 1425 709 1425 b 703 1425 706 1425 704 1425 b 698 1425 701 1425 699 1425 b 693 1425 696 1425 695 1425 b 688 1425 691 1425 690 1425 b 683 1425 686 1425 685 1425 b 678 1425 682 1425 680 1425 b 674 1425 677 1425 675 1425 b 549 1118 528 1430 441 1233 b 666 1068 577 1088 618 1067 z m 628 1285 b 754 1281 646 1348 740 1344 b 755 1280 754 1281 755 1280 b 752 1208 760 1256 758 1231 b 624 1213 732 1145 638 1148 b 628 1285 620 1236 621 1261 z "},"Æ":{"ha":1742,"x_min":0,"x_max":0,"o":"m 1747 971 b 651 971 1747 971 651 971 b 613 970 637 971 624 971 l 613 970 b 612 970 612 970 612 970 l 612 970 b 497 920 562 969 526 959 l -66 68 b -73 22 -76 53 -79 36 b -37 0 -67 9 -53 0 l 197 0 b 243 25 215 0 232 10 l 279 76 l 298 105 l 768 105 b 792 25 768 105 792 27 b 845 -3 801 -5 845 -3 b 965 -3 885 -3 925 -3 b 1126 -3 1019 -3 1073 -3 b 1306 -3 1186 -3 1246 -3 b 1463 -3 1358 -3 1411 -3 b 1559 -3 1495 -3 1527 -3 b 1571 -3 1563 -3 1567 -3 b 1610 30 1589 -3 1607 12 l 1644 220 b 1617 252 1647 238 1635 252 l 1062 252 b 1024 279 1045 252 1030 263 l 1006 335 b 1010 357 1004 343 1005 351 b 1029 367 1014 364 1022 367 l 1527 367 b 1565 400 1545 367 1562 382 l 1596 568 b 1569 601 1599 586 1587 601 l 948 601 b 911 628 931 601 916 611 l 890 691 b 894 712 888 698 889 706 b 913 723 898 719 906 723 l 1702 723 b 1741 755 1720 723 1738 737 l 1774 938 b 1747 971 1777 956 1765 971 z m 450 337 l 616 590 l 696 337 z "},"Ç":{"ha":957,"x_min":0,"x_max":0,"o":"m 948 974 l 410 974 b 107 721 268 974 132 861 l 21 254 b 233 0 -5 114 90 0 l 350 0 b 316 -113 335 -52 321 -101 b 319 -144 312 -123 313 -135 b 344 -162 324 -154 333 -160 b 422 -181 373 -168 408 -176 b 427 -266 465 -199 459 -248 b 311 -259 398 -283 349 -280 b 280 -256 301 -253 290 -252 b 257 -279 270 -259 262 -267 l 245 -311 b 266 -359 238 -330 247 -351 b 279 -364 271 -361 276 -363 b 598 -293 393 -400 544 -377 b 582 -130 626 -249 630 -177 b 477 -79 560 -109 524 -91 b 468 -71 473 -78 470 -75 b 467 -60 466 -68 465 -64 l 488 0 l 771 0 b 836 54 802 0 831 24 l 863 201 b 817 255 868 231 848 255 l 350 255 b 323 287 331 255 319 269 l 396 690 b 434 722 399 708 416 722 l 902 722 b 967 776 932 722 961 747 l 993 920 b 948 974 998 950 978 974 z "},"È":{"ha":1035,"x_min":0,"x_max":0,"o":"m 1040 974 l 221 974 b 156 920 190 974 161 949 l 0 54 b 45 0 -6 24 15 0 l 864 0 b 903 32 882 0 899 15 l 937 223 b 910 255 940 241 928 255 l 341 255 b 332 266 335 255 331 260 l 348 359 b 361 370 350 365 355 370 l 819 370 b 858 403 837 370 855 385 l 888 571 b 861 603 892 589 880 603 l 404 603 b 395 614 398 603 394 608 l 413 715 b 426 725 414 720 419 725 l 995 725 b 1033 758 1013 725 1030 740 l 1067 941 b 1040 974 1070 959 1058 974 z m 574 1124 b 629 1098 587 1108 608 1098 b 777 1098 671 1098 728 1098 b 798 1110 786 1098 794 1103 b 799 1135 803 1118 803 1127 l 682 1346 b 619 1384 669 1369 644 1384 b 407 1384 594 1384 480 1384 b 385 1370 398 1384 389 1378 b 388 1343 381 1361 382 1351 z "},"É":{"ha":1035,"x_min":0,"x_max":0,"o":"m 1040 974 l 221 974 b 156 920 190 974 161 949 l 0 54 b 45 0 -6 24 15 0 l 864 0 b 903 32 882 0 899 15 l 937 223 b 910 255 940 241 928 255 l 341 255 b 332 266 335 255 331 260 l 348 359 b 361 370 350 365 355 370 l 819 370 b 858 403 837 370 855 385 l 888 571 b 861 603 892 589 880 603 l 404 603 b 395 614 398 603 394 608 l 413 715 b 426 725 414 720 419 725 l 995 725 b 1033 758 1013 725 1030 740 l 1067 941 b 1040 974 1070 959 1058 974 z m 492 1098 b 636 1098 540 1098 594 1098 b 705 1119 661 1098 683 1096 l 921 1342 b 926 1369 928 1349 930 1360 b 904 1384 922 1378 913 1384 b 674 1384 814 1384 718 1384 b 619 1355 652 1384 632 1373 l 472 1137 b 471 1111 467 1129 467 1119 b 492 1098 475 1103 483 1098 z "},"Ê":{"ha":1035,"x_min":0,"x_max":0,"o":"m 1040 974 l 221 974 b 156 920 190 974 161 949 l 0 54 b 45 0 -6 24 15 0 l 864 0 b 903 32 882 0 899 15 l 937 223 b 910 255 940 241 928 255 l 341 255 b 332 266 335 255 331 260 l 348 359 b 361 370 350 365 355 370 l 819 370 b 858 403 837 370 855 385 l 888 571 b 861 603 892 589 880 603 l 404 603 b 395 614 398 603 394 608 l 413 715 b 426 725 414 720 419 725 l 995 725 b 1033 758 1013 725 1030 740 l 1067 941 b 1040 974 1070 959 1058 974 z m 381 1103 b 560 1103 445 1103 539 1103 b 609 1124 579 1103 596 1110 l 678 1198 l 732 1130 b 789 1103 746 1113 767 1103 b 858 1103 816 1103 839 1103 b 930 1103 859 1103 877 1103 b 950 1103 936 1103 943 1103 b 972 1117 959 1103 968 1108 b 969 1142 976 1125 975 1135 l 807 1348 b 760 1370 796 1362 778 1370 b 636 1370 723 1370 689 1370 b 532 1329 593 1370 556 1356 l 363 1144 b 359 1117 357 1137 355 1126 b 381 1103 363 1108 371 1103 z "},"Ë":{"ha":1035,"x_min":0,"x_max":0,"o":"m 1040 974 l 221 974 b 156 920 190 974 161 949 l 0 54 b 45 0 -6 24 15 0 l 864 0 b 903 32 882 0 899 15 l 937 223 b 910 255 940 241 928 255 l 341 255 b 332 266 335 255 331 260 l 348 359 b 361 370 350 365 355 370 l 819 370 b 858 403 837 370 855 385 l 888 571 b 861 603 892 589 880 603 l 404 603 b 395 614 398 603 394 608 l 413 715 b 426 725 414 720 419 725 l 995 725 b 1033 758 1013 725 1030 740 l 1067 941 b 1040 974 1070 959 1058 974 z m 772 1071 l 921 1071 b 980 1120 949 1071 975 1093 l 1006 1270 b 965 1319 1011 1297 993 1319 l 816 1319 b 757 1270 788 1319 762 1297 l 731 1120 b 772 1071 726 1093 744 1071 z m 372 1071 l 521 1071 b 580 1120 549 1071 575 1093 l 606 1270 b 565 1319 611 1297 593 1319 l 416 1319 b 357 1270 388 1319 362 1297 l 331 1120 b 372 1071 326 1093 344 1071 z "},"Ì":{"ha":449,"x_min":0,"x_max":0,"o":"m 404 972 l 220 972 b 156 918 190 972 161 948 l 0 54 b 45 0 -6 24 14 0 l 228 0 b 293 54 258 0 287 24 l 449 918 b 404 972 454 948 434 972 z m 552 1133 l 435 1345 b 372 1382 422 1367 398 1382 b 161 1382 347 1382 233 1382 b 138 1368 151 1382 142 1376 b 142 1342 134 1359 136 1349 l 327 1123 b 382 1097 341 1106 361 1097 b 531 1097 425 1097 482 1097 b 552 1109 539 1097 547 1101 b 552 1133 556 1116 556 1125 z "},"Í":{"ha":450,"x_min":0,"x_max":0,"o":"m 404 972 l 220 972 b 156 918 190 972 161 948 l 0 54 b 45 0 -6 24 14 0 l 228 0 b 293 54 258 0 287 24 l 449 918 b 404 972 454 948 434 972 z m 621 1367 b 598 1382 617 1376 608 1382 b 369 1382 509 1382 413 1382 b 314 1353 347 1382 327 1371 l 167 1135 b 166 1110 162 1127 162 1118 b 187 1097 170 1102 178 1097 b 331 1097 235 1097 289 1097 b 400 1117 356 1097 378 1094 l 616 1340 b 621 1367 623 1348 625 1358 z "},"Î":{"ha":451,"x_min":0,"x_max":0,"o":"m 404 972 l 220 972 b 156 918 190 972 161 948 l 0 54 b 45 0 -6 24 14 0 l 228 0 b 293 54 258 0 287 24 l 449 918 b 404 972 454 948 434 972 z m 650 1141 l 488 1346 b 441 1368 477 1360 459 1368 b 317 1368 404 1368 369 1368 b 213 1327 274 1368 237 1354 l 44 1142 b 40 1116 37 1135 36 1124 b 62 1101 44 1107 52 1101 b 241 1101 126 1101 220 1101 b 290 1122 259 1101 277 1109 l 359 1196 l 413 1128 b 469 1101 427 1111 448 1101 b 539 1101 497 1101 520 1101 b 611 1101 540 1101 558 1101 b 631 1101 617 1101 624 1101 b 653 1115 640 1101 649 1106 b 650 1141 657 1123 656 1133 z "},"Ï":{"ha":453,"x_min":0,"x_max":0,"o":"m 404 972 l 220 972 b 156 918 190 972 161 948 l 0 54 b 45 0 -6 24 14 0 l 228 0 b 293 54 258 0 287 24 l 449 918 b 404 972 454 948 434 972 z m 646 1317 l 497 1317 b 438 1268 469 1317 443 1295 l 412 1119 b 453 1069 407 1091 425 1069 l 602 1069 b 661 1119 629 1069 656 1091 l 687 1268 b 646 1317 692 1295 673 1317 z m 53 1069 l 202 1069 b 261 1119 230 1069 256 1091 l 287 1268 b 246 1318 292 1295 273 1318 l 97 1318 b 38 1268 69 1318 43 1295 l 12 1119 b 53 1069 7 1091 25 1069 z "},"Ñ":{"ha":1163,"x_min":0,"x_max":0,"o":"m 1119 971 l 937 971 b 872 917 906 971 877 947 l 791 468 b 766 464 789 456 773 453 l 491 952 b 452 971 483 964 469 971 l 220 971 b 156 917 190 971 161 947 l 0 54 b 45 0 -6 24 14 0 l 227 0 b 292 54 257 0 286 24 l 380 541 b 404 545 382 553 397 555 l 704 19 b 742 0 712 7 726 0 l 943 0 b 1008 54 974 0 1003 24 l 1164 917 b 1119 971 1169 947 1149 971 z m 432 1128 l 544 1128 b 580 1173 570 1128 566 1159 b 660 1168 603 1196 638 1185 b 710 1138 675 1156 693 1145 b 825 1125 746 1123 786 1126 b 1007 1320 937 1121 1001 1217 l 1008 1325 b 983 1351 1008 1339 997 1351 b 869 1351 983 1351 869 1351 b 834 1310 845 1351 846 1325 b 773 1301 819 1292 793 1291 b 741 1321 761 1307 752 1315 b 707 1340 730 1327 719 1334 b 462 1299 663 1361 528 1374 b 407 1154 423 1256 412 1209 b 432 1128 406 1140 417 1128 z "},"Ò":{"ha":1204,"x_min":0,"x_max":0,"o":"m 971 975 l 411 975 b 107 721 268 975 132 861 l 22 254 b 234 0 -3 114 92 0 l 795 0 b 1099 254 938 0 1074 114 l 1183 721 b 971 975 1209 861 1114 975 z m 883 692 l 810 287 b 772 254 807 269 790 254 l 349 254 b 322 287 331 254 319 269 l 395 692 b 434 724 399 709 416 724 l 856 724 b 883 692 875 724 887 709 z m 660 1126 b 716 1100 674 1109 695 1100 b 864 1100 758 1100 815 1100 b 885 1112 873 1100 881 1104 b 886 1136 890 1119 890 1128 l 768 1348 b 706 1385 756 1370 731 1385 b 494 1385 681 1385 567 1385 b 472 1371 484 1385 476 1380 b 475 1345 468 1362 469 1352 z "},"Ó":{"ha":1204,"x_min":0,"x_max":0,"o":"m 971 975 l 411 975 b 107 721 268 975 132 861 l 22 254 b 234 0 -3 114 92 0 l 795 0 b 1099 254 938 0 1074 114 l 1183 721 b 971 975 1209 861 1114 975 z m 883 692 l 810 287 b 772 254 807 269 790 254 l 349 254 b 322 287 331 254 319 269 l 395 692 b 434 724 399 709 416 724 l 856 724 b 883 692 875 724 887 709 z m 607 1100 b 751 1100 655 1100 708 1100 b 820 1120 776 1100 798 1097 l 1036 1344 b 1041 1370 1043 1351 1045 1361 b 1018 1385 1037 1379 1028 1385 b 789 1385 928 1385 833 1385 b 734 1356 767 1385 746 1374 l 587 1138 b 586 1113 582 1130 581 1121 b 607 1100 590 1105 598 1100 z "},"Ô":{"ha":1204,"x_min":0,"x_max":0,"o":"m 971 975 l 411 975 b 107 721 268 975 132 861 l 22 254 b 234 0 -3 114 92 0 l 795 0 b 1099 254 938 0 1074 114 l 1183 721 b 971 975 1209 861 1114 975 z m 883 692 l 810 287 b 772 254 807 269 790 254 l 349 254 b 322 287 331 254 319 269 l 395 692 b 434 724 399 709 416 724 l 856 724 b 883 692 875 724 887 709 z m 434 1104 b 613 1104 498 1104 592 1104 b 662 1125 632 1104 649 1112 l 731 1199 l 785 1131 b 842 1104 799 1114 820 1104 b 911 1104 869 1104 892 1104 b 983 1104 912 1104 930 1104 b 1003 1104 989 1104 996 1104 b 1025 1118 1012 1104 1021 1109 b 1022 1144 1029 1126 1028 1136 l 860 1349 b 813 1371 849 1363 832 1371 b 689 1371 776 1371 742 1371 b 585 1330 646 1371 609 1357 l 416 1145 b 412 1119 410 1138 408 1128 b 434 1104 416 1110 424 1104 z "},"Õ":{"ha":1204,"x_min":0,"x_max":0,"o":"m 971 975 l 411 975 b 107 721 268 975 132 861 l 22 254 b 234 0 -3 114 92 0 l 795 0 b 1099 254 938 0 1074 114 l 1183 721 b 971 975 1209 861 1114 975 z m 883 692 l 810 287 b 772 254 807 269 790 254 l 349 254 b 322 287 331 254 319 269 l 395 692 b 434 724 399 709 416 724 l 856 724 b 883 692 875 724 887 709 z m 455 1131 l 567 1131 b 603 1176 593 1131 589 1162 b 683 1171 626 1199 661 1189 b 733 1142 698 1160 716 1149 b 848 1128 769 1126 809 1129 b 1030 1323 960 1125 1024 1221 l 1031 1328 b 1006 1354 1031 1342 1020 1354 b 892 1354 1006 1354 892 1354 b 857 1314 868 1354 869 1328 b 796 1305 842 1296 816 1295 b 764 1325 784 1310 775 1319 b 730 1343 753 1331 742 1338 b 485 1303 686 1365 551 1377 b 430 1158 446 1259 435 1212 b 455 1131 429 1144 440 1131 z "},"Ö":{"ha":1204,"x_min":0,"x_max":0,"o":"m 971 975 l 411 975 b 107 721 268 975 132 861 l 22 254 b 234 0 -3 114 92 0 l 795 0 b 1099 254 938 0 1074 114 l 1183 721 b 971 975 1209 861 1114 975 z m 883 692 l 810 287 b 772 254 807 269 790 254 l 349 254 b 322 287 331 254 319 269 l 395 692 b 434 724 399 709 416 724 l 856 724 b 883 692 875 724 887 709 z m 837 1072 l 987 1072 b 1045 1122 1014 1072 1040 1094 l 1071 1271 b 1030 1321 1076 1299 1058 1321 l 881 1321 b 823 1271 854 1321 827 1298 l 796 1122 b 837 1072 791 1094 810 1072 z m 437 1072 l 587 1072 b 645 1122 614 1072 640 1094 l 671 1271 b 631 1321 676 1299 658 1321 l 481 1321 b 423 1271 454 1321 428 1298 l 396 1122 b 437 1072 391 1094 410 1072 z "},"×":{"ha":811,"x_min":0,"x_max":0,"o":"m 785 726 l 705 823 b 623 823 687 845 650 845 l 436 664 l 305 823 b 223 823 287 845 250 845 l 110 726 b 95 644 83 704 77 667 l 226 485 l 39 326 b 25 244 13 304 6 267 l 104 148 b 186 148 123 125 160 125 l 373 307 l 504 148 b 586 148 523 125 560 125 l 700 244 b 714 326 727 267 733 304 l 583 485 l 770 644 b 785 726 797 667 804 704 z "},"Ø":{"ha":1204,"x_min":0,"x_max":0,"o":"m 971 975 l 411 975 b 107 721 268 975 132 861 l 22 254 b 234 0 -3 114 92 0 l 795 0 b 1099 254 938 0 1074 114 l 1183 721 b 971 975 1209 861 1114 975 z m 395 692 b 434 724 399 709 416 724 l 782 724 l 327 315 z m 810 287 b 772 254 807 269 790 254 l 428 254 l 877 658 z "},"Ù":{"ha":1161,"x_min":0,"x_max":0,"o":"m 593 1125 b 649 1099 607 1109 628 1099 b 797 1099 691 1099 748 1099 b 818 1111 806 1099 814 1104 b 818 1136 823 1119 823 1128 l 701 1347 b 639 1385 689 1370 664 1385 b 427 1385 614 1385 499 1385 b 405 1371 417 1385 409 1379 b 408 1344 401 1362 402 1352 z m 1124 975 l 946 975 b 881 921 916 975 887 950 l 767 289 b 728 256 764 271 746 256 l 345 256 b 318 289 327 256 315 271 l 432 921 b 387 975 437 950 417 975 l 213 975 b 148 921 183 975 154 950 l 28 254 b 239 1 2 115 97 1 l 716 0 b 716 0 716 0 716 0 l 744 0 b 1048 253 887 0 1023 113 l 1169 921 b 1124 975 1174 950 1154 975 z "},"Ú":{"ha":1161,"x_min":0,"x_max":0,"o":"m 1124 975 l 946 975 b 881 921 916 975 887 951 l 767 289 b 728 256 764 271 746 256 l 345 256 b 318 289 327 256 315 271 l 432 921 b 387 975 437 951 417 975 l 213 975 b 148 921 183 975 154 951 l 28 254 b 239 1 2 115 97 2 l 716 0 b 716 0 716 0 716 0 l 744 0 b 1048 253 887 0 1023 113 l 1169 921 b 1124 975 1174 951 1154 975 z m 546 1099 b 690 1099 594 1099 647 1099 b 759 1120 715 1099 737 1097 l 975 1343 b 980 1370 982 1350 984 1361 b 957 1385 976 1379 967 1385 b 728 1385 867 1385 772 1385 b 673 1356 706 1385 685 1374 l 526 1138 b 525 1112 521 1130 520 1120 b 546 1099 529 1104 537 1099 z "},"Û":{"ha":1161,"x_min":0,"x_max":0,"o":"m 426 1104 b 605 1104 490 1104 584 1104 b 654 1125 624 1104 642 1111 l 723 1199 l 778 1131 b 834 1104 791 1114 813 1104 b 903 1104 862 1104 885 1104 b 975 1104 904 1104 923 1104 b 995 1104 981 1104 988 1104 b 1017 1118 1005 1104 1013 1109 b 1014 1143 1021 1126 1020 1136 l 852 1349 b 806 1371 841 1363 824 1371 b 681 1371 769 1371 734 1371 b 577 1330 638 1371 602 1357 l 408 1145 b 404 1118 402 1138 400 1127 b 426 1104 408 1109 417 1104 z m 1124 975 l 946 975 b 881 921 916 975 887 950 l 767 289 b 728 256 764 271 746 256 l 345 256 b 318 289 327 256 315 271 l 432 921 b 387 975 437 950 417 975 l 213 975 b 148 921 183 975 154 950 l 28 254 b 239 1 2 115 97 1 l 716 0 b 716 0 716 0 716 0 l 744 0 b 1048 253 887 0 1023 113 l 1169 921 b 1124 975 1174 950 1154 975 z "},"Ü":{"ha":1161,"x_min":0,"x_max":0,"o":"m 1124 975 l 946 975 b 881 921 916 975 887 951 l 767 289 b 728 256 764 271 746 256 l 345 256 b 318 289 327 256 315 271 l 432 921 b 387 975 437 951 417 975 l 213 975 b 148 921 183 975 154 951 l 28 254 b 239 1 2 115 97 2 l 716 0 b 716 0 716 0 716 0 l 744 0 b 1048 253 887 0 1023 113 l 1169 921 b 1124 975 1174 951 1154 975 z m 803 1072 l 953 1072 b 1011 1121 980 1072 1006 1094 l 1038 1271 b 997 1320 1042 1298 1024 1320 l 847 1320 b 789 1271 820 1320 794 1298 l 763 1121 b 803 1072 758 1094 776 1072 z m 403 1072 l 553 1072 b 611 1121 580 1072 606 1094 l 638 1271 b 597 1320 642 1298 624 1320 l 447 1320 b 389 1271 420 1320 394 1298 l 363 1121 b 403 1072 358 1094 376 1072 z "},"Ý":{"ha":996,"x_min":0,"x_max":0,"o":"m 472 1097 b 616 1097 520 1097 574 1097 b 685 1117 641 1097 663 1094 l 901 1341 b 906 1367 908 1348 910 1358 b 884 1382 902 1376 893 1382 b 654 1382 794 1382 698 1382 b 599 1353 632 1382 612 1371 l 452 1135 b 451 1110 447 1127 447 1118 b 472 1097 455 1102 463 1097 z m 1051 972 l 818 972 b 766 945 799 972 779 962 l 539 655 b 516 659 533 647 520 649 l 395 945 b 353 972 389 962 372 972 l 121 972 b 83 923 95 972 74 945 l 320 359 b 323 330 321 349 322 340 l 273 54 b 318 0 268 24 288 0 l 502 0 b 566 54 532 0 561 24 l 616 330 b 628 357 620 339 624 348 l 1070 923 b 1051 972 1087 945 1076 972 z "},"ß":{"ha":1122,"x_min":0,"x_max":0,"o":"m 871 555 l 796 555 b 780 574 785 555 778 564 l 808 733 b 821 805 813 760 817 783 b 677 976 836 894 767 976 l 407 976 b 126 742 276 976 150 871 l 7 60 b 58 0 2 29 26 0 l 219 0 b 290 60 254 0 284 25 l 403 711 b 429 733 405 723 417 733 l 518 733 b 536 711 529 733 538 723 l 510 567 b 709 329 486 436 575 329 l 783 329 b 799 310 794 329 801 320 l 792 268 b 765 246 790 256 778 246 l 449 246 b 382 191 417 246 388 222 l 358 59 b 407 0 352 27 375 0 l 773 0 b 1055 235 905 0 1032 106 l 1070 317 b 871 555 1094 448 1005 555 z "},"à":{"ha":1086,"x_min":0,"x_max":0,"o":"m 524 1041 b 574 1017 536 1026 555 1017 b 707 1017 612 1017 663 1017 b 726 1028 715 1017 722 1022 b 727 1050 730 1035 730 1043 l 621 1241 b 565 1274 610 1261 588 1274 b 374 1274 542 1274 439 1274 b 354 1262 366 1274 358 1269 b 357 1238 351 1254 352 1245 z m 1006 72 l 755 840 b 689 890 741 880 706 890 b 573 891 677 890 589 891 l 573 891 b 454 842 529 889 486 886 l -53 74 b -20 0 -77 41 -58 0 l 191 0 b 239 26 209 0 228 10 l 272 72 l 287 95 l 698 95 l 718 28 b 756 0 724 11 738 0 l 956 0 b 1006 72 989 0 1017 39 z m 434 320 l 565 520 l 629 320 z "},"á":{"ha":1086,"x_min":0,"x_max":0,"o":"m 1006 72 l 755 840 b 689 890 741 880 706 890 b 573 891 677 890 589 891 l 573 891 b 454 842 529 889 486 886 l -53 74 b -20 0 -76 41 -58 0 l 191 0 b 239 26 209 0 228 10 l 272 72 l 287 95 l 698 95 l 718 28 b 756 0 724 11 738 0 l 956 0 b 1006 72 989 0 1017 39 z m 434 320 l 565 520 l 629 320 z m 557 1017 b 686 1017 600 1017 648 1017 b 748 1036 709 1017 728 1015 l 943 1237 b 947 1261 949 1243 950 1253 b 927 1274 944 1269 936 1274 b 720 1274 846 1274 760 1274 b 671 1248 700 1274 682 1265 l 538 1052 b 537 1029 534 1045 533 1036 b 557 1017 541 1022 549 1017 z "},"â":{"ha":1086,"x_min":0,"x_max":0,"o":"m 380 1021 b 541 1021 438 1021 523 1021 b 585 1040 558 1021 574 1028 l 647 1107 l 696 1046 b 747 1021 709 1030 728 1021 b 809 1021 772 1021 793 1021 b 874 1021 810 1021 827 1021 b 892 1021 880 1021 886 1021 b 912 1033 901 1021 908 1026 b 910 1057 916 1041 915 1050 l 764 1241 b 722 1262 753 1254 738 1262 b 610 1262 688 1262 657 1262 b 516 1225 571 1262 538 1249 l 364 1058 b 360 1034 358 1051 357 1042 b 380 1021 364 1026 372 1021 z m 1006 72 l 755 840 b 689 890 741 880 706 890 b 573 891 677 890 589 891 l 573 891 b 454 842 529 889 486 886 l -53 74 b -20 0 -77 41 -58 0 l 191 0 b 239 26 209 0 228 10 l 272 72 l 287 95 l 698 95 l 718 28 b 756 0 724 11 738 0 l 956 0 b 1006 72 989 0 1017 39 z m 434 320 l 565 520 l 629 320 z "},"ã":{"ha":1086,"x_min":0,"x_max":0,"o":"m 1006 72 l 755 840 b 689 890 741 880 706 890 b 573 891 677 890 589 891 l 573 891 b 454 842 529 889 486 886 l -53 74 b -20 0 -77 41 -58 0 l 191 0 b 239 26 209 0 228 10 l 272 72 l 287 95 l 698 95 l 718 28 b 756 0 724 11 738 0 l 956 0 b 1006 72 989 0 1017 39 z m 434 320 l 565 520 l 629 320 z m 403 1046 l 503 1046 b 536 1087 527 1046 524 1074 b 608 1082 557 1107 588 1098 b 653 1056 622 1072 637 1062 b 756 1043 686 1042 721 1044 b 921 1219 857 1040 915 1126 l 921 1223 b 899 1247 922 1236 912 1247 b 796 1247 899 1247 796 1247 b 765 1211 775 1247 776 1223 b 709 1202 751 1194 728 1193 b 681 1220 699 1207 691 1215 b 650 1237 671 1226 661 1232 b 430 1200 611 1256 490 1267 b 381 1070 395 1161 385 1119 b 403 1046 379 1057 390 1046 z "},"ä":{"ha":1086,"x_min":0,"x_max":0,"o":"m 1006 72 l 755 840 b 689 890 741 880 706 890 b 573 891 677 890 589 891 l 573 891 b 454 842 529 889 486 886 l -53 74 b -20 0 -77 41 -58 0 l 191 0 b 239 26 209 0 228 10 l 272 72 l 287 95 l 698 95 l 718 28 b 756 0 724 11 738 0 l 956 0 b 1006 72 989 0 1017 39 z m 434 320 l 565 520 l 629 320 z m 719 987 l 859 987 b 914 1033 885 987 910 1008 l 939 1174 b 900 1220 943 1199 926 1220 l 760 1220 b 705 1174 734 1220 710 1199 l 681 1033 b 719 987 676 1007 693 987 z m 344 987 l 484 987 b 539 1033 510 987 534 1008 l 564 1174 b 525 1220 568 1199 551 1220 l 385 1220 b 330 1174 359 1220 335 1199 l 305 1033 b 344 987 301 1007 318 987 z "},"å":{"ha":1086,"x_min":0,"x_max":0,"o":"m 1006 72 l 755 840 b 689 890 741 880 706 890 b 573 891 677 890 589 891 l 573 891 b 454 842 529 889 486 886 l -53 74 b -20 0 -77 41 -58 0 l 191 0 b 239 26 209 0 228 10 l 272 72 l 287 95 l 698 95 l 718 28 b 756 0 724 11 738 0 l 956 0 b 1006 72 989 0 1017 39 z m 434 320 l 565 520 l 629 320 z m 615 994 b 619 993 616 994 618 993 b 623 994 621 993 622 994 b 628 993 625 994 626 993 b 632 994 629 993 631 994 b 637 993 634 994 635 993 b 641 994 638 993 639 994 b 805 1149 734 991 800 1063 b 656 1315 810 1239 743 1318 b 652 1315 655 1315 653 1315 b 648 1315 650 1315 649 1315 b 643 1315 646 1315 645 1315 b 639 1315 642 1315 640 1315 b 634 1315 637 1315 636 1315 b 630 1315 633 1315 631 1315 b 626 1315 628 1315 627 1315 b 621 1315 624 1315 623 1315 b 509 1039 490 1319 412 1142 b 615 994 535 1011 571 992 z m 580 1189 b 694 1185 597 1245 681 1242 b 694 1184 694 1185 694 1185 b 691 1120 699 1163 698 1140 b 577 1124 674 1063 589 1065 b 580 1189 573 1144 574 1167 z "},"æ":{"ha":1558,"x_min":0,"x_max":0,"o":"m 1548 893 l 608 893 l 608 891 b 573 891 592 891 578 891 l 573 891 b 454 842 529 889 486 886 l -53 74 b -20 0 -77 41 -58 0 l 191 0 b 239 26 209 0 228 10 l 272 72 l 287 95 l 698 95 l 718 28 b 756 0 724 11 738 0 l 767 0 l 767 0 l 1390 0 b 1433 36 1411 0 1430 16 l 1464 207 b 1457 235 1466 218 1464 227 b 1431 247 1451 242 1442 247 l 949 246 l 921 333 l 1350 333 b 1393 369 1371 333 1390 349 l 1421 521 b 1414 549 1423 531 1420 541 b 1388 560 1408 556 1398 560 l 849 560 l 848 555 l 816 653 l 1508 653 b 1551 689 1529 653 1548 669 l 1581 854 b 1548 893 1585 875 1570 893 z m 434 320 l 565 520 l 629 320 z "},"ç":{"ha":890,"x_min":0,"x_max":0,"o":"m 867 893 l 383 893 b 102 659 252 893 126 788 l 25 239 b 65 70 13 175 27 115 b 224 0 103 25 159 0 l 335 0 b 303 -105 321 -48 308 -94 b 306 -133 300 -114 301 -124 b 328 -149 310 -141 319 -147 b 399 -166 354 -154 386 -161 b 403 -243 438 -182 432 -226 b 299 -236 377 -258 333 -255 b 271 -233 290 -231 280 -230 b 251 -254 262 -236 255 -244 l 240 -283 b 258 -326 233 -300 242 -319 b 270 -330 263 -328 267 -329 b 557 -267 372 -363 508 -342 b 543 -120 582 -227 586 -162 b 448 -74 523 -101 491 -85 b 440 -67 444 -73 441 -70 b 439 -57 438 -64 438 -60 l 459 0 l 709 0 b 775 56 740 0 770 25 l 799 188 b 750 246 805 220 783 246 l 329 246 b 316 252 324 246 319 248 b 313 265 313 255 312 260 l 379 628 b 405 650 381 640 393 650 l 826 650 b 893 706 858 650 887 675 l 916 835 b 867 893 922 867 900 893 z "},"è":{"ha":960,"x_min":0,"x_max":0,"o":"m 540 1041 b 589 1017 552 1026 571 1017 b 723 1017 628 1017 679 1017 b 742 1028 731 1017 738 1022 b 742 1050 746 1035 746 1043 l 637 1241 b 581 1274 626 1261 603 1274 b 390 1274 558 1274 455 1274 b 370 1262 381 1274 374 1269 b 373 1238 366 1254 368 1245 z m 950 893 l 213 893 b 146 838 182 893 152 868 l 5 59 l 5 59 b 15 17 3 43 6 28 b 55 0 25 6 39 0 l 791 0 b 835 36 812 0 831 16 l 866 207 b 859 235 867 218 865 227 b 833 247 852 242 843 247 l 321 246 l 336 331 b 339 333 336 332 338 333 l 751 333 b 795 369 772 333 791 349 l 822 521 b 815 549 824 531 821 541 b 789 560 809 556 800 560 l 378 560 l 394 650 b 397 653 394 651 396 653 l 909 653 b 953 689 930 653 949 669 l 982 854 b 950 893 986 875 971 893 z "},"é":{"ha":960,"x_min":0,"x_max":0,"o":"m 489 1017 b 618 1017 532 1017 580 1017 b 680 1036 641 1017 660 1015 l 874 1237 b 879 1261 881 1243 882 1253 b 859 1274 875 1269 867 1274 b 652 1274 778 1274 692 1274 b 603 1248 632 1274 614 1265 l 470 1052 b 469 1029 466 1045 465 1036 b 489 1017 473 1022 480 1017 z m 950 893 l 213 893 b 146 838 182 893 152 868 l 5 59 l 5 59 b 15 17 3 43 6 28 b 55 0 25 6 39 0 l 791 0 b 835 36 812 0 831 16 l 866 207 b 859 235 867 218 865 227 b 833 247 852 242 843 247 l 321 246 l 336 331 b 339 333 336 332 338 333 l 751 333 b 795 369 772 333 791 349 l 822 521 b 815 549 824 531 821 541 b 789 560 809 556 800 560 l 378 560 l 394 650 b 397 653 394 651 396 653 l 909 653 b 953 689 930 653 949 669 l 982 854 b 950 893 986 875 971 893 z "},"ê":{"ha":960,"x_min":0,"x_max":0,"o":"m 358 1021 b 519 1021 415 1021 500 1021 b 563 1040 535 1021 551 1028 l 625 1107 l 674 1046 b 725 1021 686 1030 705 1021 b 787 1021 750 1021 770 1021 b 852 1021 788 1021 805 1021 b 870 1021 857 1021 863 1021 b 890 1033 878 1021 886 1026 b 887 1057 893 1041 892 1050 l 741 1241 b 699 1262 731 1254 715 1262 b 587 1262 666 1262 635 1262 b 494 1225 548 1262 515 1249 l 342 1058 b 338 1034 336 1051 334 1042 b 358 1021 341 1026 349 1021 z m 950 893 l 213 893 b 146 838 182 893 152 868 l 5 59 l 5 59 b 15 17 3 43 6 28 b 55 0 25 6 39 0 l 791 0 b 835 36 812 0 831 16 l 866 207 b 859 235 867 218 865 227 b 833 247 852 242 843 247 l 321 246 l 336 331 b 339 333 336 332 338 333 l 751 333 b 795 369 772 333 791 349 l 822 521 b 815 549 824 531 821 541 b 789 560 809 556 800 560 l 378 560 l 394 650 b 397 653 394 651 396 653 l 909 653 b 953 689 930 653 949 669 l 982 854 b 950 893 986 875 971 893 z "},"ë":{"ha":960,"x_min":0,"x_max":0,"o":"m 950 893 l 213 893 b 146 838 182 893 152 868 l 5 59 l 5 59 b 15 17 3 43 6 28 b 55 0 25 6 39 0 l 791 0 b 835 36 812 0 831 16 l 866 207 b 859 235 867 218 865 227 b 833 247 852 242 843 247 l 321 246 l 336 331 b 339 333 336 332 338 333 l 751 333 b 795 369 772 333 791 349 l 822 521 b 815 549 824 531 821 541 b 789 560 809 556 800 560 l 378 560 l 394 650 b 397 653 394 651 396 653 l 909 653 b 953 689 930 653 949 669 l 982 854 b 950 893 986 875 971 893 z m 711 987 l 851 987 b 906 1033 876 987 901 1008 l 930 1174 b 892 1220 935 1199 918 1220 l 752 1220 b 697 1174 726 1220 702 1199 l 672 1033 b 711 987 668 1007 685 987 z m 335 987 l 475 987 b 530 1033 501 987 526 1008 l 555 1174 b 517 1220 560 1199 542 1220 l 377 1220 b 322 1174 351 1220 326 1199 l 297 1033 b 335 987 292 1007 310 987 z "},"ì":{"ha":435,"x_min":0,"x_max":0,"o":"m 379 892 l 213 892 b 147 836 182 892 152 867 l 6 59 b 16 17 3 43 7 28 b 55 0 26 6 40 0 l 220 0 b 287 56 252 0 281 24 l 427 833 b 379 892 433 865 411 892 z m 515 1050 l 410 1241 b 353 1274 399 1261 376 1274 b 163 1274 331 1274 228 1274 b 143 1262 154 1274 146 1269 b 146 1238 139 1254 141 1245 l 313 1041 b 362 1017 325 1026 344 1017 b 496 1017 401 1017 452 1017 b 515 1028 504 1017 511 1022 b 515 1050 519 1035 519 1043 z "},"í":{"ha":436,"x_min":0,"x_max":0,"o":"m 379 892 l 213 892 b 147 836 182 892 152 867 l 6 59 b 16 17 3 43 7 28 b 55 0 26 6 40 0 l 220 0 b 287 56 252 0 281 24 l 427 833 b 379 892 433 865 411 892 z m 591 1261 b 570 1274 587 1269 579 1274 b 364 1274 490 1274 404 1274 b 315 1248 344 1274 326 1265 l 182 1052 b 181 1029 178 1045 177 1036 b 201 1017 185 1022 192 1017 b 330 1017 244 1017 291 1017 b 392 1036 352 1017 372 1015 l 586 1237 b 591 1261 592 1243 594 1253 z "},"î":{"ha":436,"x_min":0,"x_max":0,"o":"m 379 892 l 213 892 b 147 836 182 892 152 867 l 6 59 b 16 17 3 43 7 28 b 55 0 26 6 40 0 l 220 0 b 287 56 252 0 281 24 l 427 833 b 379 892 433 865 411 892 z m 590 1057 l 444 1241 b 402 1262 434 1254 419 1262 b 290 1262 369 1262 338 1262 b 197 1225 252 1262 219 1249 l 45 1058 b 41 1034 39 1051 37 1042 b 61 1021 45 1026 52 1021 b 222 1021 118 1021 203 1021 b 266 1040 239 1021 255 1028 l 328 1107 l 377 1046 b 428 1021 390 1030 409 1021 b 490 1021 453 1021 473 1021 b 555 1021 491 1021 508 1021 b 573 1021 561 1021 567 1021 b 593 1033 581 1021 589 1026 b 590 1057 597 1041 596 1050 z "},"ï":{"ha":436,"x_min":0,"x_max":0,"o":"m 379 892 l 213 892 b 147 836 182 892 152 867 l 6 59 b 16 17 3 43 7 28 b 55 0 26 6 40 0 l 220 0 b 287 56 252 0 281 24 l 427 833 b 379 892 433 865 411 892 z m 622 1220 l 482 1220 b 427 1173 456 1220 432 1199 l 402 1033 b 441 987 398 1007 415 987 l 581 987 b 636 1033 607 987 631 1008 l 661 1174 b 622 1220 665 1199 648 1220 z m 65 987 l 206 987 b 261 1033 231 987 256 1008 l 285 1174 b 247 1220 290 1199 273 1220 l 107 1220 b 52 1174 81 1220 56 1199 l 27 1033 b 65 987 23 1007 40 987 z "},"ñ":{"ha":1075,"x_min":0,"x_max":0,"o":"m 394 1046 l 495 1046 b 528 1087 519 1046 515 1074 b 600 1082 548 1107 580 1098 b 644 1056 613 1072 629 1062 b 748 1043 677 1042 713 1044 b 912 1219 849 1040 907 1126 l 912 1223 b 890 1247 913 1236 903 1247 b 788 1247 890 1247 788 1247 b 756 1211 766 1247 767 1223 b 701 1202 742 1194 719 1193 b 673 1220 691 1207 682 1215 b 642 1237 662 1226 652 1232 b 421 1200 602 1256 481 1267 b 372 1070 386 1161 376 1119 b 394 1046 371 1057 381 1046 z m 1021 891 l 857 891 b 790 836 825 891 796 867 l 717 431 b 715 429 717 430 716 429 b 711 430 714 429 712 428 l 463 870 b 421 891 454 884 439 891 l 212 891 b 146 836 181 891 151 867 l 5 59 b 54 0 -1 27 22 0 l 218 0 b 285 56 250 0 279 25 l 364 494 l 364 494 b 366 496 364 495 365 496 b 371 495 367 496 369 497 l 640 21 b 682 0 649 8 665 0 l 863 0 b 930 56 895 0 924 24 l 1070 833 b 1021 891 1076 865 1054 891 z "},"ò":{"ha":1113,"x_min":0,"x_max":0,"o":"m 613 1041 b 663 1017 626 1026 644 1017 b 797 1017 701 1017 753 1017 b 816 1028 805 1017 812 1022 b 816 1050 820 1035 820 1043 l 711 1241 b 654 1274 699 1261 677 1274 b 464 1274 632 1274 529 1274 b 444 1262 455 1274 447 1269 b 447 1238 440 1254 441 1245 z m 888 894 l 384 894 b 102 659 252 894 125 789 l 26 238 b 225 0 2 108 90 0 l 730 0 b 1012 235 862 0 988 106 l 1088 656 b 888 894 1111 786 1023 894 z m 735 268 b 709 246 733 256 721 246 l 329 246 b 316 252 323 246 319 248 b 313 265 313 255 312 260 l 379 629 b 405 652 381 641 393 652 l 785 652 b 798 646 790 652 795 650 b 801 632 801 643 802 638 z "},"ó":{"ha":1113,"x_min":0,"x_max":0,"o":"m 521 1017 b 650 1017 564 1017 612 1017 b 712 1036 673 1017 693 1015 l 907 1237 b 911 1261 913 1243 915 1253 b 891 1274 908 1269 900 1274 b 684 1274 810 1274 724 1274 b 635 1248 664 1274 646 1265 l 503 1052 b 501 1029 498 1045 498 1036 b 521 1017 505 1022 513 1017 z m 888 894 l 384 894 b 102 659 252 894 125 789 l 26 238 b 225 0 2 108 90 0 l 730 0 b 1012 235 862 0 988 106 l 1088 656 b 888 894 1111 786 1023 894 z m 735 268 b 709 246 733 256 721 246 l 329 246 b 316 252 323 246 319 248 b 313 265 313 255 312 260 l 379 629 b 405 652 381 641 393 652 l 785 652 b 798 646 790 652 795 650 b 801 632 801 643 802 638 z "},"ô":{"ha":1113,"x_min":0,"x_max":0,"o":"m 398 1021 b 559 1021 455 1021 540 1021 b 602 1040 575 1021 591 1028 l 664 1107 l 714 1046 b 764 1021 726 1030 745 1021 b 827 1021 789 1021 810 1021 b 891 1021 827 1021 844 1021 b 909 1021 897 1021 903 1021 b 929 1033 918 1021 926 1026 b 927 1057 933 1041 932 1050 l 781 1241 b 739 1262 771 1254 755 1262 b 627 1262 706 1262 674 1262 b 533 1225 588 1262 555 1249 l 381 1058 b 377 1034 375 1051 374 1042 b 398 1021 381 1026 389 1021 z m 888 894 l 384 894 b 102 659 252 894 125 789 l 26 238 b 225 0 2 108 90 0 l 730 0 b 1012 235 862 0 988 106 l 1088 656 b 888 894 1111 786 1023 894 z m 735 268 b 709 246 733 256 721 246 l 329 246 b 316 252 323 246 319 248 b 313 265 313 255 312 260 l 379 629 b 405 652 381 641 393 652 l 785 652 b 798 646 790 652 795 650 b 801 632 801 643 802 638 z "},"õ":{"ha":1113,"x_min":0,"x_max":0,"o":"m 888 894 l 384 894 b 102 659 252 894 125 789 l 26 238 b 225 0 2 108 90 0 l 730 0 b 1012 235 862 0 988 106 l 1088 656 b 888 894 1111 786 1023 894 z m 735 268 b 709 246 733 256 721 246 l 329 246 b 316 252 323 246 319 248 b 313 265 313 255 312 260 l 379 629 b 405 652 381 641 393 652 l 785 652 b 798 646 790 652 795 650 b 801 632 801 643 802 638 z m 433 1046 l 534 1046 b 567 1087 557 1046 554 1074 b 639 1082 587 1107 619 1098 b 683 1056 652 1072 668 1062 b 787 1043 716 1042 752 1044 b 951 1219 888 1040 945 1126 l 951 1223 b 929 1247 952 1236 942 1247 b 827 1247 929 1247 827 1247 b 795 1211 805 1247 806 1223 b 740 1202 781 1194 758 1193 b 712 1220 730 1207 721 1215 b 681 1237 701 1226 691 1232 b 460 1200 641 1256 520 1267 b 411 1070 425 1161 415 1119 b 433 1046 410 1057 420 1046 z "},"ö":{"ha":1113,"x_min":0,"x_max":0,"o":"m 888 894 l 384 894 b 102 659 252 894 125 789 l 26 238 b 225 0 2 108 90 0 l 730 0 b 1012 235 862 0 988 106 l 1088 656 b 888 894 1111 786 1023 894 z m 735 268 b 709 246 733 256 721 246 l 329 246 b 316 252 323 246 319 248 b 313 265 313 255 312 260 l 379 629 b 405 652 381 641 393 652 l 785 652 b 798 646 790 652 795 650 b 801 632 801 643 802 638 z m 773 987 l 914 987 b 968 1033 939 987 964 1008 l 993 1174 b 955 1220 998 1199 981 1220 l 815 1220 b 760 1174 789 1220 764 1199 l 735 1033 b 773 987 730 1007 748 987 z m 398 987 l 538 987 b 593 1033 564 987 589 1008 l 618 1174 b 579 1220 622 1199 605 1220 l 439 1220 b 384 1174 413 1220 389 1199 l 360 1033 b 398 987 355 1007 372 987 z "},"ø":{"ha":1113,"x_min":0,"x_max":0,"o":"m 888 894 l 384 894 b 102 659 252 894 125 789 l 26 238 b 225 0 2 108 90 0 l 730 0 b 1012 235 862 0 988 106 l 1088 656 b 888 894 1111 786 1023 894 z m 379 629 b 405 652 381 641 393 652 l 752 652 l 332 370 z m 735 268 b 709 246 733 256 721 246 l 329 246 b 316 251 324 246 319 248 l 790 569 z "},"ù":{"ha":1074,"x_min":0,"x_max":0,"o":"m 601 1041 b 650 1017 613 1026 632 1017 b 784 1017 689 1017 740 1017 b 803 1028 792 1017 799 1022 b 803 1050 807 1035 807 1043 l 698 1241 b 641 1274 686 1261 664 1274 b 451 1274 619 1274 516 1274 b 431 1262 442 1274 434 1269 b 434 1238 427 1254 428 1245 z m 1026 894 l 866 894 b 800 839 835 894 805 870 l 697 270 b 670 248 695 258 683 248 l 325 248 b 312 253 320 248 315 250 b 309 267 309 257 308 262 l 412 836 b 363 894 418 868 396 894 l 206 894 b 140 839 175 894 145 869 l 31 239 b 230 1 8 109 96 1 l 659 0 l 661 0 l 685 0 b 685 0 685 0 685 0 b 967 235 817 0 943 105 l 1075 836 l 1075 836 b 1026 894 1081 868 1059 894 z "},"ú":{"ha":1074,"x_min":0,"x_max":0,"o":"m 501 1018 b 630 1018 544 1018 592 1018 b 692 1036 653 1018 673 1016 l 887 1237 b 891 1261 893 1243 895 1253 b 871 1274 888 1269 880 1274 b 664 1274 790 1274 704 1274 b 615 1249 645 1274 626 1265 l 483 1052 b 482 1029 478 1045 478 1036 b 501 1018 485 1022 493 1018 z m 1026 894 l 866 894 b 800 839 835 894 805 870 l 697 270 b 670 248 695 258 683 248 l 325 248 b 312 253 320 248 315 250 b 309 267 309 257 308 262 l 412 836 b 363 894 418 868 396 894 l 206 894 b 140 839 175 894 145 869 l 31 239 b 230 1 8 109 96 1 l 659 0 l 661 0 l 685 0 b 685 0 685 0 685 0 b 967 235 817 0 943 105 l 1075 836 l 1075 836 b 1026 894 1081 868 1059 894 z "},"û":{"ha":1074,"x_min":0,"x_max":0,"o":"m 387 1021 b 548 1021 444 1021 529 1021 b 592 1040 565 1021 581 1028 l 654 1107 l 703 1046 b 754 1021 716 1030 735 1021 b 816 1021 779 1021 799 1021 b 881 1021 817 1021 834 1021 b 899 1021 887 1021 893 1021 b 919 1033 907 1021 915 1026 b 916 1057 922 1041 921 1050 l 770 1241 b 728 1262 760 1254 745 1262 b 616 1262 695 1262 664 1262 b 523 1225 577 1262 545 1249 l 371 1058 b 367 1034 365 1051 363 1042 b 387 1021 370 1026 378 1021 z m 1026 894 l 866 894 b 800 839 835 894 805 870 l 697 270 b 670 248 695 258 683 248 l 325 248 b 312 253 320 248 315 250 b 309 267 309 257 308 262 l 412 836 b 363 894 418 868 396 894 l 206 894 b 140 839 175 894 145 869 l 31 239 b 230 1 8 109 96 1 l 659 0 l 661 0 l 685 0 b 685 0 685 0 685 0 b 967 235 817 0 943 105 l 1075 836 l 1075 836 b 1026 894 1081 868 1059 894 z "},"ü":{"ha":1074,"x_min":0,"x_max":0,"o":"m 1026 894 l 866 894 b 800 839 835 894 805 870 l 697 270 b 670 248 695 258 683 248 l 325 248 b 312 253 320 248 315 250 b 309 267 309 257 308 262 l 412 836 b 363 894 418 868 396 894 l 206 894 b 140 839 175 894 145 869 l 31 239 b 230 1 8 109 96 1 l 659 0 l 661 0 l 685 0 b 685 0 685 0 685 0 b 967 235 817 0 943 105 l 1075 836 l 1075 836 b 1026 894 1081 868 1059 894 z m 748 972 l 888 972 b 943 1018 914 972 939 993 l 968 1158 b 929 1205 972 1184 955 1205 l 789 1205 b 734 1158 763 1205 739 1184 l 710 1018 b 748 972 705 992 722 972 z m 373 972 l 513 972 b 568 1018 539 972 563 993 l 593 1158 b 554 1205 597 1184 580 1205 l 414 1205 b 359 1158 388 1205 364 1184 l 334 1018 b 373 972 330 992 347 972 z "},"ý":{"ha":921,"x_min":0,"x_max":0,"o":"m 438 1017 b 567 1017 481 1017 529 1017 b 629 1036 590 1017 610 1015 l 824 1237 b 829 1261 830 1243 832 1253 b 808 1274 825 1269 817 1274 b 602 1274 727 1274 641 1274 b 553 1248 582 1274 563 1265 l 420 1052 b 419 1029 415 1045 415 1036 b 438 1017 423 1022 430 1017 z m 958 892 l 749 892 b 695 865 729 892 709 882 l 491 603 b 488 602 490 602 489 602 b 485 605 488 602 486 603 l 376 863 b 331 892 369 881 352 892 l 121 892 b 84 871 107 892 93 884 b 80 836 77 860 75 847 l 292 330 b 295 306 293 322 294 314 l 250 59 b 299 0 244 27 267 0 l 464 0 b 531 56 496 0 525 24 l 576 303 l 585 325 l 983 834 l 983 834 b 958 892 1002 859 988 892 z "},"ÿ":{"ha":921,"x_min":0,"x_max":0,"o":"m 958 892 l 749 892 b 695 865 729 892 709 882 l 491 603 b 488 602 490 602 489 602 b 485 605 488 602 486 603 l 376 863 b 331 892 369 881 352 892 l 121 892 b 84 871 107 892 93 884 b 80 836 77 860 75 847 l 292 330 b 295 306 293 322 294 314 l 250 59 b 299 0 244 27 267 0 l 464 0 b 531 56 496 0 525 24 l 576 303 l 585 325 l 983 834 l 983 834 b 958 892 1002 859 988 892 z m 665 987 l 805 987 b 860 1033 831 987 856 1008 l 885 1174 b 847 1220 890 1199 872 1220 l 707 1220 b 652 1174 681 1220 656 1199 l 627 1033 b 665 987 622 1007 640 987 z m 290 987 l 430 987 b 485 1033 456 987 480 1008 l 510 1174 b 471 1220 514 1199 497 1220 l 331 1220 b 276 1174 305 1220 281 1199 l 252 1033 b 290 987 247 1007 264 987 z "},"ı":{"ha":433,"x_min":0,"x_max":0,"o":"m 379 892 l 213 892 b 147 836 182 892 152 867 l 6 59 b 16 17 3 43 7 28 b 55 0 26 6 40 0 l 220 0 b 287 56 252 0 281 24 l 427 833 b 379 892 433 865 411 892 z "},"Œ":{"ha":1519,"x_min":0,"x_max":0,"o":"m 1525 974 l 410 974 b 107 721 268 974 132 861 l 21 254 b 233 0 -5 114 90 0 l 1349 0 b 1388 32 1368 0 1385 15 l 1422 223 b 1395 255 1426 241 1413 255 l 897 255 b 888 266 891 255 887 260 l 905 359 b 918 370 906 365 912 370 l 1305 370 b 1344 403 1323 370 1340 385 l 1374 571 b 1347 603 1377 589 1365 603 l 960 603 b 951 614 954 603 950 608 l 969 715 b 982 725 970 720 976 725 l 1480 725 b 1519 758 1498 725 1516 740 l 1552 941 b 1525 974 1555 959 1543 974 z m 592 255 l 350 255 b 323 287 331 255 319 269 l 396 690 b 434 722 399 708 416 722 l 677 722 z "},"œ":{"ha":1468,"x_min":0,"x_max":0,"o":"m 1457 893 l 383 893 b 102 659 252 893 126 788 l 25 239 b 65 70 13 175 27 115 b 224 0 103 25 159 0 l 1299 0 b 1343 36 1320 0 1339 16 l 1373 207 b 1366 235 1375 218 1373 227 b 1341 247 1360 242 1351 247 l 865 246 l 881 331 b 884 333 881 332 882 333 l 1259 333 b 1302 369 1280 333 1299 349 l 1330 521 b 1323 549 1332 531 1329 541 b 1297 560 1317 556 1307 560 l 922 560 l 938 650 b 941 653 938 651 940 653 l 1417 653 b 1460 689 1438 653 1457 669 l 1490 854 b 1457 893 1494 875 1479 893 z m 584 246 l 329 246 b 316 252 324 246 319 248 b 313 265 313 255 312 260 l 379 628 b 405 650 381 640 393 650 l 657 650 z "},"Š":{"ha":1106,"x_min":0,"x_max":0,"o":"m 525 1125 b 571 1102 536 1111 553 1102 b 696 1102 608 1102 643 1102 b 800 1143 739 1102 776 1117 l 969 1329 b 973 1355 975 1336 977 1346 b 951 1370 969 1364 960 1370 b 772 1370 887 1370 793 1370 b 723 1349 753 1370 736 1362 l 654 1274 l 600 1342 b 543 1370 586 1360 565 1370 b 474 1370 515 1370 493 1370 b 402 1370 473 1370 454 1370 b 382 1370 396 1370 389 1370 b 360 1356 373 1370 364 1364 b 363 1330 356 1348 357 1337 z m 1044 972 l 396 972 b 92 718 253 972 117 858 l 74 619 b 286 365 49 479 144 365 l 725 365 b 752 333 743 365 755 351 l 744 287 b 705 255 740 269 723 255 l 95 255 b 30 201 65 255 36 230 l 4 54 b 49 0 -2 24 19 0 l 686 0 l 686 0 l 714 0 b 1018 254 856 0 992 114 l 1034 344 b 822 598 1059 484 964 598 l 383 598 b 356 630 365 598 353 612 l 367 692 b 406 724 370 709 388 724 l 999 724 b 1064 778 1030 724 1059 748 l 1089 918 b 1044 972 1095 947 1075 972 z "},"š":{"ha":1022,"x_min":0,"x_max":0,"o":"m 503 1041 b 545 1021 514 1028 529 1021 b 657 1021 579 1021 610 1021 b 751 1058 696 1021 729 1034 l 903 1225 b 907 1248 909 1231 910 1240 b 887 1262 903 1256 895 1262 b 726 1262 829 1262 744 1262 b 682 1243 709 1262 693 1255 l 620 1176 l 571 1237 b 520 1262 558 1252 539 1262 b 458 1262 495 1262 474 1262 b 393 1262 457 1262 440 1262 b 375 1262 387 1262 381 1262 b 355 1249 366 1262 359 1257 b 357 1226 351 1242 352 1232 z m 954 891 l 371 891 b 89 656 239 891 112 786 l 73 567 b 113 399 61 504 76 444 b 272 329 151 354 207 329 l 667 329 b 680 323 672 329 677 327 b 683 310 683 320 684 315 l 675 268 b 649 246 673 256 661 246 l 100 246 b 33 191 68 246 39 222 l 9 59 b 58 0 4 27 26 0 l 657 0 b 939 235 789 0 915 105 l 953 317 b 913 485 965 380 950 440 b 754 555 875 530 819 555 l 359 555 b 346 561 354 555 349 557 b 343 574 344 564 342 569 l 353 629 b 380 651 356 641 368 651 l 914 651 b 981 707 946 651 975 676 l 1003 833 b 954 891 1009 865 987 891 z "},"Ÿ":{"ha":996,"x_min":0,"x_max":0,"o":"m 1051 972 l 818 972 b 766 945 799 972 779 962 l 539 655 b 516 659 533 647 520 649 l 395 945 b 353 972 389 962 372 972 l 121 972 b 83 923 95 972 74 945 l 320 359 b 323 330 321 349 322 340 l 273 54 b 318 0 268 24 288 0 l 502 0 b 566 54 532 0 561 24 l 616 330 b 628 357 620 339 624 348 l 1070 923 b 1051 972 1087 945 1076 972 z m 724 1069 l 874 1069 b 932 1119 901 1069 927 1091 l 959 1268 b 918 1318 963 1296 945 1318 l 768 1318 b 710 1268 741 1318 715 1295 l 684 1119 b 724 1069 679 1091 697 1069 z m 324 1069 l 474 1069 b 532 1119 501 1069 527 1091 l 559 1268 b 518 1318 563 1296 545 1318 l 368 1318 b 310 1268 341 1318 315 1295 l 284 1119 b 324 1069 279 1091 297 1069 z "},"ž":{"ha":972,"x_min":0,"x_max":0,"o":"m 440 1041 b 482 1021 450 1028 466 1021 b 594 1021 515 1021 547 1021 b 687 1058 633 1021 666 1034 l 840 1225 b 843 1248 845 1231 847 1241 b 823 1262 840 1256 832 1262 b 662 1262 766 1262 681 1262 b 618 1243 646 1262 630 1255 l 556 1176 l 507 1237 b 457 1262 495 1252 476 1262 b 394 1262 431 1262 411 1262 b 329 1262 393 1262 377 1262 b 311 1262 324 1262 318 1262 b 292 1249 303 1262 295 1257 b 294 1226 288 1242 289 1233 z m 944 891 l 190 891 b 123 835 158 891 129 866 l 100 710 b 149 651 94 678 117 651 l 530 652 b 528 649 530 651 529 650 l 69 285 b -3 175 31 258 5 218 l -24 59 b 25 0 -30 27 -8 0 l 786 0 b 853 56 818 0 847 24 l 876 187 b 827 246 882 219 860 246 l 446 245 b 448 248 446 245 446 246 l 902 612 b 973 722 939 639 965 679 l 993 832 b 944 891 999 864 977 891 z "},"–":{"ha":761,"x_min":0,"x_max":0,"o":"m 693 613 l 112 613 b 52 562 84 613 57 590 l 25 408 b 67 357 20 380 39 357 l 648 357 b 708 408 676 357 703 380 l 735 562 b 693 613 740 590 721 613 z "},"—":{"ha":1088,"x_min":0,"x_max":0,"o":"m 1020 613 l 112 613 b 52 562 84 613 57 590 l 25 408 b 67 357 20 380 39 357 l 975 357 b 1035 408 1003 357 1030 380 l 1062 562 b 1020 613 1067 590 1048 613 z "},"‘":{"ha":314,"x_min":0,"x_max":0,"o":"m 345 1114 l 264 1114 b 201 1070 238 1114 211 1096 l 97 819 b 140 749 82 783 103 749 l 267 749 b 334 806 298 749 328 774 l 380 1070 b 345 1114 385 1094 369 1114 z "},"’":{"ha":290,"x_min":0,"x_max":0,"o":"m 334 1114 l 207 1114 b 140 1057 176 1114 146 1088 l 94 792 b 130 749 89 768 106 749 l 210 749 b 273 793 237 749 263 767 l 377 1043 b 334 1114 392 1079 371 1114 z "},"‚":{"ha":318,"x_min":0,"x_max":0,"o":"m 182 256 l 56 256 b -12 199 24 256 -6 231 l -58 -65 b -22 -109 -62 -89 -46 -109 l 58 -109 b 122 -65 85 -109 111 -91 l 226 186 b 182 256 241 222 219 256 z "},"“":{"ha":635,"x_min":0,"x_max":0,"o":"m 331 1114 l 250 1114 b 187 1070 224 1114 198 1096 l 83 819 b 126 749 68 783 89 749 l 253 749 b 320 806 284 749 314 774 l 366 1070 b 331 1114 371 1094 355 1114 z m 677 1114 l 597 1114 b 533 1070 570 1114 544 1096 l 429 819 b 473 749 414 783 436 749 l 599 749 b 667 806 631 749 661 774 l 713 1070 b 677 1114 717 1094 701 1114 z "},"”":{"ha":608,"x_min":0,"x_max":0,"o":"m 323 1114 l 196 1114 b 129 1057 165 1114 135 1088 l 83 792 b 118 749 78 768 94 749 l 199 749 b 262 793 225 749 251 767 l 366 1043 b 323 1114 381 1079 360 1114 z m 669 1114 l 543 1114 b 476 1057 511 1114 481 1088 l 429 792 b 465 749 425 768 441 749 l 545 749 b 609 793 572 749 598 767 l 713 1043 b 669 1114 728 1079 707 1114 z "},"„":{"ha":664,"x_min":0,"x_max":0,"o":"m 182 256 l 56 256 b -12 199 24 256 -6 231 l -58 -65 b -22 -109 -62 -89 -46 -109 l 58 -109 b 122 -65 85 -109 111 -91 l 226 186 b 182 256 241 222 219 256 z m 529 256 l 402 256 b 335 199 371 256 341 231 l 289 -65 b 324 -109 284 -89 300 -109 l 405 -109 b 468 -65 431 -109 457 -91 l 572 186 b 529 256 587 222 566 256 z "},"†":{"ha":1036,"x_min":0,"x_max":0,"o":"m 1003 813 l 737 813 b 725 827 730 813 724 820 l 770 1076 b 725 1130 776 1106 756 1130 l 543 1130 b 478 1076 513 1130 484 1106 l 433 823 b 421 813 432 817 427 813 l 152 813 b 87 759 121 813 92 789 l 62 619 b 107 566 56 590 77 566 l 375 566 b 384 555 381 566 385 561 l 323 216 b 323 216 323 216 323 216 l 265 -105 b 310 -159 259 -135 280 -159 l 493 -159 b 558 -105 524 -159 553 -135 l 677 555 b 690 566 678 561 684 566 l 958 566 b 1023 619 989 566 1018 590 l 1048 759 b 1003 813 1054 789 1033 813 z "},"•":{"ha":410,"x_min":0,"x_max":0,"o":"m 330 645 l 137 645 b 62 581 102 645 68 617 l 28 389 b 81 325 22 354 45 325 l 273 325 b 348 389 308 325 342 354 l 382 582 b 330 645 388 617 365 645 z "},"…":{"ha":1436,"x_min":0,"x_max":0,"o":"m 203 256 l 49 256 b -11 205 21 256 -6 233 l -38 51 b 4 0 -43 23 -24 0 l 158 0 b 218 51 186 0 213 23 l 246 205 b 203 256 250 233 232 256 z m 753 256 l 599 256 b 539 205 571 256 544 233 l 512 51 b 554 0 507 23 526 0 l 708 0 b 768 51 736 0 763 23 l 796 205 b 753 256 800 233 782 256 z m 1303 256 l 1149 256 b 1089 205 1121 256 1094 233 l 1062 51 b 1104 0 1057 23 1076 0 l 1258 0 b 1318 51 1286 0 1313 23 l 1345 205 b 1303 256 1350 233 1332 256 z "},"‹":{"ha":601,"x_min":0,"x_max":0,"o":"m 601 753 b 590 802 622 774 616 802 l 357 802 b 301 775 338 802 316 792 b 45 508 117 583 43 506 b 34 450 28 491 24 467 b 184 195 131 290 134 278 b 231 169 194 179 212 169 l 464 169 b 492 218 489 169 505 196 l 349 462 b 355 496 343 472 345 486 z "},"›":{"ha":603,"x_min":0,"x_max":0,"o":"m 567 521 b 418 775 471 681 468 692 b 371 802 408 792 390 802 l 138 802 b 110 753 112 802 97 774 l 253 509 b 247 475 259 499 256 485 l 1 218 b 12 169 -20 196 -14 169 l 244 169 b 301 195 264 169 285 179 b 557 463 485 387 559 465 b 567 521 573 480 578 504 z "},"€":{"ha":1057,"x_min":0,"x_max":0,"o":"m 1033 975 l 495 975 b 192 722 353 975 217 862 l 176 636 l 105 636 b 78 614 92 636 80 627 l 66 550 b 86 527 64 537 73 527 l 156 527 l 142 453 l 65 453 b 39 431 52 453 41 443 l 27 366 b 46 343 24 354 33 343 l 122 343 l 106 255 b 318 1 80 115 175 1 l 856 1 b 921 55 887 1 916 25 l 948 202 b 902 256 953 232 933 256 l 435 256 b 408 288 417 256 404 270 l 418 343 l 672 342 b 699 365 685 342 697 352 l 711 429 b 707 446 712 435 710 441 b 691 452 703 450 698 452 l 437 453 l 451 526 l 712 526 b 738 548 724 526 736 536 l 750 612 b 746 629 751 619 750 624 b 731 636 742 633 737 636 l 471 636 l 481 691 b 519 724 484 709 501 724 l 987 724 b 1052 778 1017 724 1046 748 l 1078 921 b 1033 975 1083 951 1063 975 z "}}}
